<svg width="30" height="20" viewBox="0 0 30 20" fill="none" xmlns="http://www.w3.org/2000/svg">
<path fill-rule="evenodd" clip-rule="evenodd" d="M0.124079 10C0.124079 9.71821 0.236021 9.44796 0.435278 9.2487C0.634535 9.04944 0.904787 8.9375 1.18658 8.9375H26.2467L19.5593 2.25225C19.4605 2.15346 19.3822 2.03619 19.3287 1.90711C19.2753 1.77804 19.2477 1.63971 19.2477 1.5C19.2477 1.36029 19.2753 1.22196 19.3287 1.09288C19.3822 0.963813 19.4605 0.846536 19.5593 0.747749C19.6581 0.648962 19.7754 0.570601 19.9045 0.517137C20.0335 0.463674 20.1719 0.436157 20.3116 0.436157C20.4513 0.436157 20.5896 0.463674 20.7187 0.517137C20.8478 0.570601 20.965 0.648962 21.0638 0.747749L29.5638 9.24775C29.6628 9.34645 29.7413 9.46369 29.7948 9.59278C29.8484 9.72186 29.876 9.86024 29.876 10C29.876 10.1398 29.8484 10.2781 29.7948 10.4072C29.7413 10.5363 29.6628 10.6536 29.5638 10.7522L21.0638 19.2523C20.965 19.351 20.8478 19.4294 20.7187 19.4829C20.5896 19.5363 20.4513 19.5638 20.3116 19.5638C20.1719 19.5638 20.0335 19.5363 19.9045 19.4829C19.7754 19.4294 19.6581 19.351 19.5593 19.2523C19.4605 19.1535 19.3822 19.0362 19.3287 18.9071C19.2753 18.778 19.2477 18.6397 19.2477 18.5C19.2477 18.3603 19.2753 18.222 19.3287 18.0929C19.3822 17.9638 19.4605 17.8465 19.5593 17.7477L26.2467 11.0625H1.18658C0.904787 11.0625 0.634535 10.9506 0.435278 10.7513C0.236021 10.552 0.124079 10.2818 0.124079 10Z" fill="black"/>
</svg>
