<svg width="742" height="742" viewBox="0 0 742 742" fill="none" xmlns="http://www.w3.org/2000/svg">
<g filter="url(#filter0_f_11_3084)">
<ellipse cx="98.4793" cy="98.6293" rx="98.4793" ry="98.6293" transform="matrix(0.0222179 -0.999753 0.999755 0.0221503 270.292 467.02)" fill="url(#paint0_radial_11_3084)"/>
</g>
<g clip-path="url(#clip0_11_3084)">
<path d="M455.936 468.133C495.618 468.133 527.787 466.288 527.787 464.012C527.787 461.737 495.618 459.892 455.936 459.892C416.254 459.892 384.086 461.737 384.086 464.012C384.086 466.288 416.254 468.133 455.936 468.133Z" fill="#8095C5"/>
<path d="M392.762 452.52L394.966 448.175L408.078 448.652L408.373 452.52L402.21 463.199L391.119 454.65L392.762 452.52Z" fill="#D9959A"/>
<path d="M400.764 448.609L401.311 458.686C401.311 458.686 404.723 456.752 408.696 453.192L408.148 447.488L400.75 448.609H400.764Z" fill="#CA6970"/>
<path d="M391.976 452.38C391.976 452.38 395.822 452.31 400.315 455.701C402.982 457.719 407.011 453.557 408.246 452.478C408.499 452.253 408.836 452.45 408.878 452.842L410.422 466.941H371.395C370.945 466.941 370.566 466.465 370.566 465.876V462.905C370.566 462.442 370.791 462.036 371.128 461.896L391.961 452.38H391.976Z" fill="#344571"/>
<path d="M389.785 453.108L396.061 456.738" stroke="white" stroke-width="0.39" stroke-miterlimit="10"/>
<path d="M387.048 454.51L393.323 458.14" stroke="white" stroke-width="0.39" stroke-miterlimit="10"/>
<path d="M456.343 452.52L458.547 448.175L470.593 446.381L471.954 452.52L465.791 463.199L454.701 454.65L456.343 452.52Z" fill="#D9959A"/>
<path d="M465.651 448.329L464.556 457.86C464.556 457.86 467.967 455.925 471.94 452.366L470.845 447.502L465.637 448.343L465.651 448.329Z" fill="#CA6970"/>
<path d="M455.557 452.38C455.557 452.38 459.404 452.31 463.896 455.701C466.563 457.719 470.593 453.557 471.828 452.478C472.081 452.253 472.418 452.45 472.46 452.842L474.004 466.941H434.976C434.527 466.941 434.148 466.465 434.148 465.876V462.905C434.148 462.442 434.373 462.036 434.71 461.896L455.543 452.38H455.557Z" fill="#344571"/>
<path d="M452.483 453.389L458.758 457.019" stroke="white" stroke-width="0.39" stroke-miterlimit="10"/>
<path d="M449.745 454.79L456.02 458.42" stroke="white" stroke-width="0.39" stroke-miterlimit="10"/>
<path d="M411.349 137.726C411.883 138.469 412.613 139.268 413.427 139.59C415.252 140.319 417.568 138.805 419.604 137.222C421.612 135.666 425.43 138.203 426.02 138.609L430.624 153.451L430.259 153.647L430.4 153.914L430.54 154.18L435.159 151.699L435.201 151.587C438.598 140.445 438.374 137.95 436.759 133.101C432.478 126.192 418.958 122.492 417.933 121.637C415.729 119.815 412.528 119.464 410.058 120.964C405.313 123.837 406.211 130.284 408.92 134.587C409.426 135.904 410.212 137.025 411.363 137.74L411.349 137.726ZM416.207 122.59C412.683 121.637 409.173 123.445 408.387 127.145C408.429 125.267 409.145 123.543 410.914 122.478C412.613 121.455 414.606 121.609 416.207 122.59ZM432.618 152.372L431.621 152.904C432.337 152.19 433.109 151.839 433.643 151.671L432.632 152.372H432.618Z" fill="#344571"/>
<path d="M395.205 281.942C395.205 281.942 390.193 341.87 389.715 358.436C389.238 374.988 392.579 448.82 392.579 448.82L409.384 449.184C409.384 449.184 428.041 325.347 448.327 285.403L395.219 281.942H395.205Z" fill="#2AD883"/>
<path d="M420.53 285.095C420.53 285.095 406.253 354.33 406.253 364.967C406.253 375.605 404.147 448.652 404.147 448.652" stroke="white" stroke-width="0.39" stroke-miterlimit="10"/>
<path d="M410.507 441.111H392.397" stroke="white" stroke-width="0.39" stroke-miterlimit="10"/>
<path d="M398.728 282.012C398.728 282.012 406.772 331.892 418.551 367.238C428.069 395.801 453.086 450.123 453.086 450.123L472.586 449.913L452.258 368.093C451.177 363.832 450.489 359.473 450.222 355.073C449.184 338.479 452.595 304.941 454.027 283.455L398.742 282.026L398.728 282.012Z" fill="#2AD883"/>
<path d="M435.819 282.867C435.819 282.867 430.33 347.617 435.257 357.693C440.185 367.77 464.219 449.759 464.219 449.759" stroke="#0C152E" stroke-width="0.39" stroke-miterlimit="10"/>
<path d="M470.242 442.513H450.04" stroke="#0C152E" stroke-width="0.39" stroke-miterlimit="10"/>
<path d="M416.15 282.306L433.643 305.193" stroke="#0C152E" stroke-width="0.39" stroke-miterlimit="10"/>
<path d="M423.226 187.648C423.226 187.648 423.886 182.266 418.916 181.495C413.946 180.725 400.511 177.165 366.383 188.797C366.383 188.797 360.473 155.806 360.416 153.143C360.262 146.191 358.058 137.18 352.681 132.414C352.246 132.022 351.923 149.639 351.726 159.043C351.726 159.043 347.178 206.372 352.723 211.123C358.268 215.874 428.757 203.878 423.24 187.662L423.226 187.648Z" fill="#D9959A"/>
<path d="M380.099 183.92C380.099 183.92 431.79 171.012 431.228 186.008C430.666 201.004 355.419 229.105 349.129 220.724C339.134 207.423 350.084 161.902 350.084 161.902L362.438 156.394L366.046 187.326L380.113 183.906L380.099 183.92Z" fill="#2AD883"/>
<path d="M383.679 213.52C386.669 217.108 415.982 209.582 419.197 204.69C419.197 204.69 419.702 188.307 418.453 187.97C405.734 184.523 383.679 213.52 383.679 213.52Z" fill="#2D3C60"/>
<path d="M440.536 177.767C440.536 177.767 466.746 180.444 468.403 202.112C470.059 223.779 456.512 291.5 456.512 291.5L390.754 292.635L394.418 207.227C394.685 201.705 396.384 196.351 399.36 191.726C402.097 187.452 405.312 182.617 407.137 182.378L434.653 174.992L440.536 177.753V177.767Z" fill="#2AD883"/>
<path d="M445.941 185.924C461.875 179.547 467.56 191.278 468.389 202.112C470.045 223.779 456.119 291.122 456.119 291.122L391.119 293.014" fill="#28A362"/>
<path d="M432.281 158.16L435.033 175.006L418.607 185.56L416.361 178.987L417.54 166.807L429.796 155.721C429.796 155.721 431.677 157.067 431.916 157.543C432.155 158.02 432.267 158.146 432.267 158.146L432.281 158.16Z" fill="#D9959A"/>
<path d="M429.796 155.721L417.54 166.807L416.67 174.053C416.67 174.053 427.803 170.998 428.182 161.804" fill="#0C152E"/>
<path d="M398.574 252.58L383.959 206.807C383.145 204.27 381.306 202.224 378.919 201.187L349.003 188.279C348.118 187.9 347.206 188.769 347.515 189.708L362.284 234.557C363.084 236.967 364.811 238.929 367.057 239.98L397.058 253.981C397.942 254.388 398.883 253.519 398.574 252.566V252.58Z" fill="#344571"/>
<path d="M396.061 255.257L381.446 209.483C380.632 206.947 378.793 204.901 376.407 203.863L346.49 190.955C345.605 190.577 344.693 191.446 345.002 192.385L359.771 237.233C360.571 239.644 362.298 241.606 364.544 242.657L394.545 256.658C395.429 257.065 396.37 256.196 396.061 255.243V255.257Z" fill="white"/>
<path d="M388.564 221.747L377.558 224.998L391.47 230.632L388.564 221.747Z" fill="#0C152E"/>
<path d="M377.431 229.805C379.046 231.249 412.795 268.361 430.091 272.916C435.131 274.247 438.865 269.875 441.49 265.32L458.884 231.641L435.706 213.688C435.538 213.94 423.436 234.486 420.643 244.802C419.73 248.193 418.13 247.927 415.378 246.245L394.236 233.225C394.236 233.225 394.278 229.539 393.801 228.138C392.902 225.489 388.662 221.929 388.662 221.929L390.501 227.563C390.838 228.516 391.919 229.203 390.207 229.399L376.772 219.462C376.772 219.462 375.55 219.364 376.701 220.682C377.867 221.999 379.116 223.386 378.962 223.485C378.807 223.583 375.129 221.018 374.96 221.999C374.806 222.98 377.951 225.363 377.824 225.461C377.698 225.559 374.245 222.728 374.062 223.653C373.865 224.578 376.477 226.358 376.603 226.708C376.729 227.058 373.767 224.802 373.641 225.293C373.515 225.783 376.491 228.964 377.417 229.791L377.431 229.805Z" fill="#D9959A"/>
<path d="M441.841 195.51C441.841 195.51 448.44 177.01 461.173 184.803C473.906 192.595 462.492 229.175 457.396 238.369C453.199 245.951 448.173 260.947 441.294 270.828C436.493 277.737 422.763 276.854 416.67 271.052L390.165 245.783L396.44 233.828L418.481 243.316L441.827 195.51H441.841Z" fill="#2AD883"/>
<path d="M430.989 151.615C431.144 152.007 431.621 152.12 431.916 151.825C432.913 150.844 434.906 149.513 435.608 153.395C436.577 158.679 431.045 157.782 430.61 158.482C429.712 159.926 426.848 164.775 422.58 166.667C419.983 167.817 416.122 167.999 413.272 165.266C410.423 162.533 409.159 164.411 410.352 135.259C410.352 135.259 411.658 137.768 413.525 138.413C415.392 139.057 418.397 136.465 420.53 135.876C422.257 135.4 425.627 134.124 427.676 140.137C428.617 142.898 430.119 149.303 430.989 151.587V151.615Z" fill="#D9959A"/>
<path d="M410.451 156.254C410.451 156.254 412.163 157.109 416.361 156.717C416.361 156.717 414.101 159.772 412.458 159.183C410.802 158.595 410.451 156.268 410.451 156.268V156.254Z" fill="white"/>
<path d="M434.78 153.017L431.86 155.217C431.86 155.217 432.955 149.905 434.78 153.017Z" fill="#CA6970"/>
<path d="M413.876 150.073C413.876 150.704 414.129 151.223 414.438 151.223C414.746 151.223 414.999 150.704 414.999 150.073C414.999 149.443 414.746 148.924 414.438 148.924C414.129 148.924 413.876 149.443 413.876 150.073Z" fill="#0C152E"/>
<path d="M410.198 149.513C410.198 150.143 410.451 150.662 410.76 150.662C411.068 150.662 411.321 150.143 411.321 149.513C411.321 148.882 411.068 148.364 410.76 148.364C410.451 148.364 410.198 148.882 410.198 149.513Z" fill="#0C152E"/>
<path d="M418.621 145.112C419.463 145.701 418.144 143.052 417.007 142.771C415.869 142.477 414.746 143.052 414.494 144.061C414.494 144.061 416.599 143.725 418.607 145.126L418.621 145.112Z" fill="#0C152E"/>
<path d="M410.029 144.832C411.223 144.678 412.093 144.888 412.093 144.888C411.939 143.935 411.054 143.276 410.015 143.248" fill="#0C152E"/>
<path d="M411.925 149.485L410.212 154.362C410.184 154.446 410.24 154.53 410.31 154.53L412.346 154.684C412.346 154.684 412.472 154.628 412.472 154.544L412.163 149.513C412.163 149.373 411.981 149.345 411.939 149.471L411.925 149.485Z" fill="#CA6970"/>
<path d="M434.078 169.877L418.116 181.832L418.495 194.922L439.202 176.338L434.078 169.877Z" fill="white"/>
<path d="M416.207 172.918L417.919 182.406L414.887 192.651L411.083 180.696L416.207 172.918Z" fill="white"/>
<path d="M230.923 470.361C270.605 470.361 302.773 468.516 302.773 466.241C302.773 463.965 270.605 462.12 230.923 462.12C191.241 462.12 159.072 463.965 159.072 466.241C159.072 468.516 191.241 470.361 230.923 470.361Z" fill="#899CC5"/>
<path d="M274.303 202.364L296.329 169.723C297.453 168.111 296.765 162.126 295.824 160.375C293.241 155.581 288.805 151.783 283.765 150.522C261.64 144.972 175.792 170.101 175.792 170.101C175.792 170.101 190.73 237.219 259.253 233.491" fill="#131F2E"/>
<path d="M274.303 202.364L296.329 169.723C297.453 168.111 296.765 162.126 295.824 160.375C293.241 155.581 288.805 151.783 283.765 150.522C261.64 144.972 175.792 170.101 175.792 170.101C175.792 170.101 190.73 237.219 259.253 233.491" stroke="white" stroke-width="0.4" stroke-miterlimit="10"/>
<path d="M275.903 167.662C275.791 167.901 275.51 167.985 275.299 167.845C274.401 167.284 272.126 166.205 270.484 168.559C268.827 170.942 271.874 173.451 273.193 174.376C273.572 174.642 273.839 175.062 273.937 175.539C274.246 177.01 274.836 182.462 275.117 187.27C275.355 191.446 272.126 200.528 272.126 200.528C272.126 200.528 287.134 206.414 288.819 201.299C288.819 201.299 285.197 187.494 286.446 184.144C286.474 184.074 292.862 185.616 296.119 174.586C299.179 164.187 291.809 160.585 290.082 159.912C288.622 159.337 281.729 155.946 275.917 167.648L275.903 167.662Z" fill="#DCA4A3"/>
<path d="M295.277 160.879C295.277 160.879 284.018 174.179 275.285 167.536C275.285 167.536 281.35 151.755 295.277 160.879Z" fill="#131F2E" stroke="white" stroke-width="0.4" stroke-miterlimit="10"/>
<path d="M292.68 161.314C289.788 164.145 286.671 166.807 283.302 169.036C282.038 169.863 280.185 171.096 278.585 170.676C277.602 170.409 277.798 169.386 277.841 168.573C277.911 167.466 278.065 166.359 278.276 165.266C278.486 164.173 276.858 163.752 276.647 164.817C276.381 166.107 276.212 167.41 276.142 168.728C276.086 169.737 276.072 170.816 276.83 171.587C278.262 173.03 280.606 172.343 282.193 171.601C284.34 170.592 286.264 169.022 288.117 167.564C290.124 165.981 292.034 164.285 293.859 162.505C294.631 161.748 293.438 160.557 292.665 161.314H292.68Z" fill="#131F2E"/>
<path d="M285.477 172.049C286.797 172.82 287.246 174.516 286.474 175.833C285.702 177.151 284.003 177.599 282.684 176.828C281.364 176.057 280.915 174.362 281.687 173.044C282.459 171.727 284.158 171.278 285.477 172.049Z" fill="#D78682"/>
<path d="M293.999 177.473L288.061 176.099C288.061 176.099 288.875 179.295 290.672 179.393C292.469 179.491 293.999 177.487 293.999 177.487V177.473Z" fill="white"/>
<path d="M292.497 173.128L291.486 176.043L293.072 176.268C293.367 176.31 293.592 176.015 293.494 175.749L292.497 173.142V173.128Z" fill="#B35770"/>
<path d="M288.889 167.999C288.271 168.265 289.464 166.751 290.251 166.709C291.037 166.667 291.697 167.186 291.725 167.859C291.725 167.859 290.391 167.368 288.889 167.985V167.999Z" fill="#131F2E"/>
<path d="M296.835 168.559C296.119 168.237 295.277 168.461 294.982 169.064C294.982 169.064 295.908 169.092 296.877 169.709" fill="#131F2E"/>
<path d="M290.012 172.147C289.914 172.68 290.054 173.156 290.321 173.198C290.587 173.24 290.868 172.848 290.952 172.301C291.051 171.769 290.91 171.292 290.644 171.25C290.377 171.208 290.096 171.601 290.012 172.147Z" fill="#131F2E"/>
<path d="M293.718 172.778C293.634 173.296 293.76 173.745 294.013 173.787C294.266 173.829 294.532 173.451 294.617 172.932C294.701 172.413 294.574 171.965 294.322 171.923C294.069 171.881 293.802 172.259 293.718 172.778Z" fill="#131F2E"/>
<path d="M271.509 170.115C271.509 170.115 273.067 166.555 275.047 171.32L271.509 170.115Z" fill="#B34D4A"/>
<path d="M273.418 173.633C273.418 173.633 266.567 178.874 272.913 184.705C273.193 184.971 273.643 184.957 273.909 184.677C275.271 183.275 278.641 178.86 273.418 173.647V173.633Z" fill="white"/>
<path d="M269.993 173.086L273.404 177.977L276.619 172.876L269.993 173.086Z" fill="#DE5888"/>
<path d="M286.685 184.2C286.685 184.2 285.688 184.2 283.498 183.668C282.979 183.542 282.01 183.205 281.126 182.729C280.62 182.462 280.101 183.051 280.438 183.513C280.438 183.513 285.464 191.46 286.404 189.75C287.12 188.447 285.716 185.335 286.671 184.2H286.685Z" fill="#131F2E"/>
<path d="M275.299 438.953L270.372 456.921C270.372 456.921 273.334 467.698 276.086 463.536C278.837 459.359 281.547 457.159 281.547 457.159L287.331 438.743L275.299 438.953Z" fill="#EBB3AB"/>
<path d="M282.838 457.075L299.53 466.591C300.274 467.011 299.881 467.908 298.927 467.894C291.219 467.852 270.442 467.642 264.981 467.572C264.321 467.572 263.858 467.081 264.068 466.619C265.22 464.04 269.15 454.258 269.6 454.188C269.6 454.188 273.502 460.48 275.777 459.85C277.728 459.303 280.662 457.677 281.252 457.117C281.645 456.738 282.389 456.724 282.824 457.075H282.838Z" fill="#3A4B71"/>
<path d="M286.222 458.168L283.386 460.761" stroke="white" stroke-width="0.58" stroke-miterlimit="10" stroke-linecap="round"/>
<path d="M288.089 459.667L285.253 462.246" stroke="white" stroke-width="0.58" stroke-miterlimit="10" stroke-linecap="round"/>
<path d="M204.095 427.951L197.3 444.657C197.3 444.657 195.096 455.617 199.42 453.122C203.758 450.628 207.183 449.871 207.183 449.871L216.744 434.062L204.095 427.951Z" fill="#EBB3AB"/>
<path d="M208.391 450.389L219.032 466.381C219.509 467.096 218.751 467.712 217.909 467.278C211.044 463.788 192.583 454.272 187.725 451.763C187.136 451.455 186.939 450.824 187.346 450.502C189.536 448.708 197.454 441.728 197.89 441.868C197.89 441.868 198.535 449.24 200.852 449.703C202.845 450.095 206.186 449.955 206.973 449.717C207.492 449.563 208.166 449.885 208.391 450.389Z" fill="#3A4B71"/>
<path d="M210.917 452.87L207.211 453.921" stroke="white" stroke-width="0.58" stroke-miterlimit="10" stroke-linecap="round"/>
<path d="M211.914 455.057L208.208 456.094" stroke="white" stroke-width="0.58" stroke-miterlimit="10" stroke-linecap="round"/>
<path opacity="0.5" d="M229.982 434.314L199.995 415.422" stroke="white" stroke-width="0.43" stroke-miterlimit="10"/>
<path opacity="0.5" d="M296.035 432.885L258.383 432.744" stroke="white" stroke-width="0.43" stroke-miterlimit="10"/>
<path d="M257.863 251.305C252.809 262.012 250.788 265.95 247.629 278.942C243.965 294.009 239.851 325.935 236.159 343.174C231.568 364.617 210.665 413.74 199.223 434.314C200.08 435.589 205.92 439.976 211.451 443.368C228.845 421.967 255.477 377.651 264.321 351.19C270.863 331.611 271.86 320.077 274.106 308.753C274.569 306.426 277.728 306.328 277.939 308.697C278.753 317.904 277.784 330.028 276.563 354.75C275.145 383.117 268.42 430.516 269.459 448.483C272.421 448.483 281.378 448.876 285.632 448.876C292.019 417.734 305.609 361.057 306.536 351.597C310.144 314.737 315.633 288.122 293.157 252.314C279.567 252.636 269.066 251.515 257.877 251.291L257.863 251.305Z" fill="white"/>
<g style="mix-blend-mode:multiply">
<path d="M259.169 251.305L304.275 277.345C304.275 277.345 300.723 264.731 291.991 250.492L259.169 251.305Z" fill="#3A4B71"/>
</g>
<path d="M288.369 199.365C288.313 199.449 292.16 203.036 292.385 203.751C293.802 208.376 296.765 212.314 298.169 221.901C300.302 236.392 297.031 243.933 292.076 251.15L258.214 251.529C258.214 251.529 251.153 206.568 255.968 197.767C255.968 197.767 271.298 194.95 273.98 195.188C273.98 195.188 288.369 206.512 288.355 199.351L288.369 199.365Z" fill="white"/>
<path d="M287.387 238.369L296.189 313.504L315.633 316.097L299.811 236.603C299.811 236.603 300.724 232.3 299.811 224.592C297.438 204.704 291.135 200.962 290.742 200.57C290.349 200.177 287.387 238.383 287.387 238.383V238.369Z" fill="#2AD883"/>
<path d="M287.976 195.244L287.387 238.369L293.887 208.25L290.728 205.882L293.69 203.317L287.976 195.244Z" fill="#E093B0"/>
<path d="M284.228 238.369C284.032 237.976 283.217 313.504 283.217 313.504C283.217 313.504 248.598 316.937 239.135 303.147C239.135 303.147 252.276 252.16 254.634 247.422C257.007 242.699 253.455 215.132 253.455 215.132L267.466 195.44L284.228 238.369Z" fill="#2AD883"/>
<path d="M274.162 190.521C274.162 190.521 279.876 214.15 284.032 238.579L268.645 211.011L271.804 207.858L265.486 195.651L274.162 190.535V190.521Z" fill="#E093B0"/>
<path d="M137.997 320.919L205.547 372.664L241.339 326.098L173.789 274.353L137.997 320.919Z" fill="#2AD883"/>
<path d="M138.001 320.906L205.552 372.652L217.474 357.141L149.923 305.395L138.001 320.906Z" fill="white"/>
<path d="M190.311 311.167L199.845 318.471C203.849 321.538 209.586 320.784 212.659 316.786L219.974 307.269C223.047 303.271 222.292 297.544 218.287 294.476L208.754 287.173C204.749 284.105 199.012 284.859 195.939 288.857L188.624 298.375C185.551 302.372 186.306 308.1 190.311 311.167Z" stroke="#9CBDF1" stroke-width="4.07" stroke-miterlimit="10"/>
<path d="M159.816 318.488L162.433 320.493C162.932 320.875 163.645 320.781 164.028 320.284L167.583 315.658C167.965 315.161 167.871 314.448 167.373 314.066L164.756 312.062C164.257 311.68 163.544 311.774 163.161 312.271L159.606 316.897C159.224 317.394 159.318 318.107 159.816 318.488Z" fill="white"/>
<path d="M197.224 347.139L199.841 349.144C200.34 349.525 201.053 349.432 201.436 348.934L204.991 344.309C205.373 343.811 205.279 343.099 204.781 342.717L202.164 340.712C201.665 340.33 200.952 340.424 200.569 340.922L197.014 345.547C196.632 346.044 196.726 346.757 197.224 347.139Z" fill="white"/>
<path d="M203.014 286.889C206.608 280.834 246.197 211.936 246.197 211.936L257.526 224.606C255.056 234.038 221.068 286.931 219.776 288.136C219.776 288.136 219.523 295.06 219.299 294.738C219.06 294.415 214.961 290.056 214.624 290.295C214.301 290.533 208.306 298.494 207.268 297.737C206.229 296.98 209.682 292.061 209.163 291.682C208.643 291.304 205.948 296.924 204.867 296.461C203.786 295.985 206.762 290.407 206.201 290.323C205.639 290.225 203.547 295.663 202.761 295.242C201.961 294.822 204.656 289.188 204.418 288.865C204.179 288.543 202.101 293.981 200.978 293.784C200.136 293.644 202.087 288.445 203 286.903L203.014 286.889Z" fill="#EBB3AB"/>
<path d="M230.249 271.781L244.779 218.635L252.767 234.767L230.249 271.781Z" fill="#E59183"/>
<path d="M265.486 195.637C264.237 194.249 255.027 195.048 249.903 201.145C244.779 207.255 213.613 267.31 213.613 267.31L229.196 276.167C229.196 276.167 265.851 222.405 268.448 214.137C270.625 207.241 269.038 199.561 265.486 195.623V195.637Z" fill="#2AD883"/>
<path d="M208.587 271.248L224.662 280.512C225.406 280.947 226.36 280.68 226.795 279.938C227.231 279.195 226.964 278.242 226.22 277.807L210.146 268.543C209.401 268.109 208.447 268.375 208.012 269.118C207.576 269.861 207.843 270.814 208.587 271.248Z" fill="#DE5888"/>
<path d="M332.114 196.646C335.259 184.467 338.909 170.115 339.106 160.136C339.274 151.671 340.327 138.735 339.513 136.339C339.274 135.652 332.17 141.847 331.244 146.78C330.458 150.956 330.612 157.557 330.612 157.557C330.612 157.557 321.192 181.369 317.374 188.391C314.847 193.03 310.481 197.977 303.04 201.088C295.599 204.214 304.093 201.677 304.093 201.677L313.036 216.659C313.036 216.659 328.212 211.796 332.114 196.646Z" fill="#EBB3AB"/>
<path d="M332.606 193.997C329.756 214.319 310.565 218.299 310.565 218.299L308.276 213.478C308.276 213.478 317.935 213.282 332.592 193.997H332.606Z" fill="#E59183"/>
<path d="M293.101 201.943C293.101 201.943 305.721 201.551 313.218 191.698C320.715 181.846 326.836 163.542 326.836 163.542L340.243 168.069C340.243 168.069 338.474 224.592 298.421 223.597L293.101 201.929V201.943Z" fill="#2AD883"/>
<path d="M347.74 109.78V118.049C347.74 118.974 348.554 119.871 349.522 119.829C350.491 119.787 351.305 119.044 351.305 118.049V109.78C351.305 108.855 350.491 107.958 349.522 108C348.554 108.042 347.74 108.785 347.74 109.78Z" fill="#E06B95"/>
<path d="M364.797 116.367C362.691 118.455 360.571 120.557 358.465 122.646C357.805 123.304 357.763 124.51 358.465 125.154C359.167 125.799 360.276 125.855 360.978 125.154C363.084 123.066 365.204 120.964 367.31 118.876C367.969 118.217 368.012 117.012 367.31 116.367C366.608 115.722 365.499 115.666 364.797 116.367Z" fill="#E06B95"/>
<path d="M339.344 121.903C336.859 119.787 334.36 117.684 331.876 115.568C331.174 114.966 330.051 114.825 329.363 115.568C328.759 116.227 328.605 117.432 329.363 118.077C331.847 120.193 334.346 122.295 336.831 124.412C337.533 125.014 338.656 125.155 339.344 124.412C339.948 123.753 340.102 122.548 339.344 121.903Z" fill="#E06B95"/>
<path d="M487.509 167.774C487.032 165.546 490.64 159.786 492.521 158.482C497.673 154.909 504.328 153.871 510.561 154.6C510.561 154.6 536.912 170.858 506.223 187.69" fill="#101C2E"/>
<path d="M524.375 197.599C524.375 197.599 535.606 147.116 521.357 148.84C507.093 150.564 511.417 158.328 511.417 158.328L517.033 159.618L522.213 199.743L524.375 197.585V197.599Z" fill="#101C2E"/>
<path d="M509.845 173.338C509.859 173.633 510.126 173.871 510.421 173.843C511.684 173.731 514.562 173.198 515.264 176.45C515.966 179.729 512.962 181.888 511.066 182.154C510.519 182.238 509.255 182.462 508.919 182.897C507.88 184.242 507.585 187.017 506.995 190.479C505.704 198.145 511.909 201.046 511.909 201.046C511.909 201.046 493.097 212.427 492.423 202.742C492.423 202.742 492.409 184.803 492.297 184.719C490.626 183.317 484.603 183.191 487.229 170.171C489.657 158.118 498.375 158.188 500.608 158.384C502.489 158.553 508.961 158.384 509.831 173.338H509.845Z" fill="#DB9B99"/>
<path d="M494.445 157.782C494.445 157.782 507.922 172.652 510.14 173.787C510.14 173.787 516.654 153.619 494.445 157.782Z" fill="#101C2E"/>
<path d="M513.916 177.529C513.916 177.529 511.572 173.535 509.55 179.337L513.916 177.529Z" fill="#CE5F5C"/>
<path d="M498.923 174.32C497.295 174.432 496.045 175.833 496.157 177.473C496.27 179.099 497.674 180.346 499.316 180.234C500.945 180.122 502.194 178.72 502.082 177.08C501.969 175.455 500.566 174.207 498.923 174.32Z" fill="#DC807D"/>
<path d="M486.709 176.506C488.043 176.141 488.969 174.88 488.885 173.451C488.815 172.343 488.141 171.432 487.215 170.984C487.215 170.984 486.246 174.362 486.709 176.506Z" fill="#DC807D"/>
<path d="M489.054 174.768L493.757 176.604C493.757 176.604 491.693 178.398 490.43 177.627C489.166 176.856 489.054 174.754 489.054 174.754V174.768Z" fill="white"/>
<path d="M492.213 171.194L491.777 174.46L490.149 173.913C489.854 173.815 489.77 173.423 489.994 173.212L492.199 171.194H492.213Z" fill="#CE5F5C"/>
<path d="M497.884 169.484C498.319 169.989 497.926 168.111 497.252 167.732C496.578 167.354 495.75 167.522 495.427 168.111C495.427 168.111 496.845 168.265 497.898 169.484H497.884Z" fill="black"/>
<path d="M489.11 167.032C488.478 167.27 489.728 165.812 490.514 165.798C491.3 165.798 491.932 166.331 491.946 167.004C491.946 167.004 490.64 166.457 489.124 167.032H489.11Z" fill="black"/>
<path d="M495.497 172.077C495.329 172.638 494.978 173.016 494.697 172.932C494.431 172.848 494.346 172.329 494.515 171.769C494.683 171.208 495.048 170.83 495.315 170.914C495.582 170.998 495.666 171.517 495.497 172.077Z" fill="black"/>
<path d="M491.146 170.465C490.977 170.998 490.64 171.362 490.387 171.292C490.135 171.208 490.051 170.718 490.219 170.185C490.387 169.653 490.724 169.288 490.977 169.358C491.23 169.442 491.314 169.933 491.146 170.465Z" fill="black"/>
<path d="M492.311 184.733C492.311 184.733 498.025 185.307 500.832 184.873C503.654 184.438 490.907 201.957 492.311 184.733Z" fill="black"/>
<path d="M533.164 472.87C565.658 472.87 592 471.358 592 469.492C592 467.627 565.658 466.115 533.164 466.115C500.669 466.115 474.327 467.627 474.327 469.492C474.327 471.358 500.669 472.87 533.164 472.87Z" fill="#86A2C5"/>
<path d="M496.494 444.489L494.445 459.023C494.445 459.023 491.16 468.665 488.099 464.923C485.053 461.195 482.02 459.219 482.02 459.219L481.024 444.111L496.494 444.489Z" fill="#DB9999"/>
<path d="M488.506 445.036L487.973 464.797C487.973 464.797 497.632 466.241 494.038 459.794L496.143 446.087L488.492 445.036H488.506Z" fill="#DC807D"/>
<path d="M545.139 443.368L549.673 457.86C549.673 457.86 553.127 460.873 554.362 460.803C556.622 460.663 557.816 456.766 557.816 456.766L558.195 443.368H545.153H545.139Z" fill="#DB9999"/>
<path d="M551.667 439.5L554.84 463.48C554.84 463.48 561.339 465.189 557.746 458.743L558.532 440.299L551.667 439.514V439.5Z" fill="#DC807D"/>
<path d="M481.024 459.149L468.838 469.016C468.22 469.478 468.655 470.263 469.554 470.263L487.552 470.403C487.987 470.403 488.38 470.207 488.52 469.913L489.882 467.138C490.275 466.339 491.061 466.269 490.977 467.124L491.637 469.8C491.595 470.221 495.905 470.109 495.947 469.716C496.185 467.334 495.68 459.527 495.259 457.355C495.203 457.047 494.88 456.794 494.459 456.738C494.08 456.682 493.687 456.794 493.448 457.019C492.227 458.196 488.352 461.728 486.274 461.013C484.884 460.536 483.087 459.682 482.526 459.177C482.147 458.841 481.445 458.827 481.038 459.135L481.024 459.149Z" fill="#DF64A0"/>
<path d="M557.984 456.262L564.905 467.838C565.649 468.96 565.228 470.305 563.895 471.104C561.733 472.393 559.964 474.958 558.602 475C556.145 475.07 552.313 472.477 550.08 471.51C548.578 470.866 547.413 469.899 547.596 468.651L549.322 457.047C549.35 456.907 549.603 456.85 549.715 456.963L552.369 459.359C553.239 460.144 555.598 460.046 556.173 459.093C556.594 458.42 557.577 456.262 557.577 456.262C557.661 456.15 557.9 456.15 557.984 456.262Z" fill="#DF64A0"/>
<path d="M521.273 252.412C526.86 262.278 529.822 269.496 533.023 282.04C536.743 296.587 577.063 419.612 578.818 446.059C574.227 447.166 543.735 446.998 540.843 446.844C531.619 420.439 508.259 334.695 504.314 318.059C503.71 315.508 499.751 316.069 500.06 318.675C502.306 337.666 514.408 417.678 520.444 446.9C518.044 448.119 483.087 447.853 480.308 447.502C477.289 414.917 461.229 291.584 485.46 251.613C496.536 250.085 510.056 252.075 521.301 252.412H521.273Z" fill="white"/>
<path d="M486.878 255.93C486.878 255.93 477.009 280.316 477.009 314.723C477.009 349.13 488.31 436.304 488.31 436.304" stroke="#2AD883" stroke-miterlimit="10"/>
<path d="M555.219 436.318L515.798 254.808" stroke="#2AD883" stroke-miterlimit="10"/>
<path d="M508.891 255.775C508.891 255.775 509.228 287.295 523.393 284.815" stroke="white" stroke-width="0.31" stroke-miterlimit="10"/>
<g style="mix-blend-mode:multiply" opacity="0.21">
<path d="M485.6 256.574L531.212 290.869C531.212 290.869 533.121 272.369 525.007 257.177L485.586 256.574H485.6Z" fill="black"/>
</g>
<path d="M479.493 286.258C493.659 288.739 491.384 257.387 491.384 257.387" stroke="white" stroke-width="0.31" stroke-miterlimit="10"/>
<path d="M518.311 436.5H478.932" stroke="white" stroke-width="0.31" stroke-miterlimit="10"/>
<path d="M577.54 436.164L536.856 436.5" stroke="white" stroke-width="0.31" stroke-miterlimit="10"/>
<path d="M534.834 311.528C534.834 311.289 535.073 308.711 535.073 308.711L533.908 312.411L534.834 311.528Z" fill="#B44543"/>
<path d="M527.52 315.186L526.706 315.816C526.706 315.816 527.548 317.358 527.913 317.232C527.913 317.232 527.309 316.503 527.52 315.186Z" fill="#B44543"/>
<path d="M495.568 236.771C496.649 234.585 497.8 232.174 499.007 229.511L488.169 220.555C488.366 217.837 488.478 215.454 488.422 213.996C488.38 213.071 487.79 212.16 487.664 212.23C485.207 213.534 477.317 237.696 475.759 241.214C475.268 242.307 473.681 242.167 472.783 241.424L446.334 218.299C445.66 217.598 439.216 214.403 432.52 206.568C430.414 210.296 434.359 217.598 436.422 220.668C436.422 220.668 464.275 259.405 477.331 261.143C477.331 261.143 491.918 257.037 494.627 238.649C495.764 238.971 496.522 239.168 496.522 239.168C498.572 236.673 497.575 236.322 495.568 236.757V236.771Z" fill="#DB9B99"/>
<path d="M446.207 218.341C446.207 218.341 439.497 208.587 438.332 208.25C437.166 207.9 440.845 214.725 439.792 214.795C439.792 214.795 444.888 218.075 446.222 218.341H446.207Z" fill="#DB9B99"/>
<path d="M492.17 199.967C492.17 199.967 482.091 198.622 479.142 204.662C476.18 210.689 469.624 237.654 469.624 237.654L451.36 220.191L444.284 233.029C444.284 233.029 470.256 265.754 477.711 263.456C485.165 261.143 492.241 208.194 492.156 199.981L492.17 199.967Z" fill="#E5E5E5"/>
<path d="M488.324 200.948C488.647 201.733 479.128 224.368 479.521 232.02C479.914 239.742 485.193 252.72 484.772 253.883C484.772 253.883 490.766 258.606 523.856 253.407C534.02 244.521 525.091 214.333 521.68 204.774C521.68 204.774 515.166 201.523 512.372 201.313C512.372 201.313 501.394 204.816 488.338 200.948H488.324Z" fill="white"/>
<path d="M568.682 305.305L487.173 306.875C485.474 306.903 484.056 305.445 484.028 303.595L483.129 248.866C483.101 247.016 484.463 245.502 486.162 245.474L567.671 243.905C569.37 243.877 570.787 245.334 570.816 247.184L571.714 301.913C571.742 303.763 570.38 305.277 568.682 305.305Z" fill="#2AD883"/>
<path d="M540.674 272.93L525.33 288.753C516.991 279.881 517.089 265.586 525.568 256.855C534.048 248.109 547.68 248.221 556.019 257.107C564.358 265.978 564.259 280.274 555.78 289.005L540.674 272.93Z" fill="#BACAE8"/>
<path d="M556.131 293.686C547.652 302.432 534.02 302.32 525.681 293.434L541.025 277.611L556.131 293.686Z" fill="#3A5171"/>
<path d="M526.004 251.094H503.738C502.896 251.094 502.208 250.408 502.208 249.567V249.497C502.208 248.656 502.896 247.969 503.738 247.969H526.004C526.846 247.969 527.534 248.656 527.534 249.497V249.567C527.534 250.408 526.846 251.094 526.004 251.094Z" fill="#DF618E"/>
<path d="M521.118 300.47H504.945C504.271 300.47 503.724 301.016 503.724 301.689V301.745C503.724 302.419 504.271 302.964 504.945 302.964H521.118C521.793 302.964 522.34 302.419 522.34 301.745V301.689C522.34 301.016 521.793 300.47 521.118 300.47Z" fill="#DF618E"/>
<path opacity="0.6" d="M531.395 272.916C531.395 272.916 538.288 276.111 532.953 295.607C532.672 296.644 532.434 297.821 532.644 298.858L533.837 307.239C534.02 308.136 534.132 309.341 533.374 309.846C532.42 310.477 526.972 315.466 526.313 315.69C524.965 316.139 526.439 309.51 526.214 306.02C526.172 305.403 526.032 308.234 525.948 309.467L525.779 312.186C524.151 311.444 524.179 308.318 523.926 307.253C523.589 305.838 523.87 304.941 524.024 304.59C524.768 303.049 526.186 299.979 526.397 297.218C526.523 295.592 525.386 289.58 524.445 278.368L531.367 272.888L531.395 272.916Z" fill="#5E818C"/>
<path d="M532.279 225.461C545.054 296.686 536.757 310.21 535.915 310.771C534.862 311.472 528.91 316.938 528.18 317.176C526.706 317.666 528.32 310.406 528.067 306.58C528.025 305.894 527.857 309.005 527.773 310.364L527.59 313.35C525.807 312.537 525.849 309.103 525.569 307.954C525.19 306.412 525.498 305.417 525.681 305.039C526.495 303.343 528.039 299.979 528.292 296.966C528.433 295.186 516.331 237.346 514.197 228.838C511.305 217.29 514.941 204.018 519.012 203.569C524.066 203.009 531.212 219.56 532.265 225.461H532.279Z" fill="#DB9B99"/>
<path d="M541.25 292.845C540.731 290.659 543.482 249.104 534.203 221.929C530.047 209.778 524.081 202.995 519.027 203.555C514.955 204.004 511.319 217.276 514.211 228.824C516.345 237.318 520.81 275.257 524.544 294.639L541.264 292.845H541.25Z" fill="white"/>
<path d="M492.549 170.816C491.96 173.997 493.181 176.87 495.287 177.263C497.379 177.641 499.555 175.385 500.13 172.217C500.72 169.036 499.499 166.163 497.393 165.77C495.301 165.392 493.125 167.648 492.549 170.816Z" stroke="#2F444E" stroke-width="0.43" stroke-miterlimit="10"/>
<path d="M485.024 168.545C484.491 171.418 485.6 174.039 487.495 174.39C489.391 174.74 491.356 172.694 491.889 169.807C492.423 166.934 491.314 164.313 489.419 163.962C487.523 163.612 485.558 165.658 485.024 168.545Z" stroke="#2F444E" stroke-width="0.43" stroke-miterlimit="10"/>
<path d="M492.128 171.951L491.384 171.769" stroke="#2F444E" stroke-width="0.43" stroke-miterlimit="10"/>
<path d="M499.779 173.829L512.484 173.507" stroke="#2F444E" stroke-width="0.43" stroke-miterlimit="10"/>
</g>
<defs>
<filter id="filter0_f_11_3084" x="0.454834" y="0.270386" width="741.26" height="740.959" filterUnits="userSpaceOnUse" color-interpolation-filters="sRGB">
<feFlood flood-opacity="0" result="BackgroundImageFix"/>
<feBlend mode="normal" in="SourceGraphic" in2="BackgroundImageFix" result="shape"/>
<feGaussianBlur stdDeviation="136" result="effect1_foregroundBlur_11_3084"/>
</filter>
<radialGradient id="paint0_radial_11_3084" cx="0" cy="0" r="1" gradientUnits="userSpaceOnUse" gradientTransform="translate(17.0945 -54.1918) rotate(63.6525) scale(348.33 861.455)">
<stop stop-color="#2AD883"/>
<stop offset="1" stop-color="#2AD883"/>
</radialGradient>
<clipPath id="clip0_11_3084">
<rect width="454" height="367" fill="white" transform="translate(138 108)"/>
</clipPath>
</defs>
</svg>
