<svg width="752" height="751" viewBox="0 0 752 751" fill="none" xmlns="http://www.w3.org/2000/svg">
<g filter="url(#filter0_f_11_3271)">
<ellipse cx="103.266" cy="103.52" rx="103.266" ry="103.52" transform="matrix(0.0222386 -0.999753 0.999755 0.0221297 270.54 476.418)" fill="url(#paint0_radial_11_3271)"/>
</g>
<g clip-path="url(#clip0_11_3271)">
<g style="mix-blend-mode:soft-light">
<path d="M357.125 235.215H475.622L453.816 160.545H335.327L357.125 235.215Z" fill="#A3C4E8"/>
</g>
<g style="mix-blend-mode:soft-light">
<path d="M354.663 235.215L332.865 160.545H209.792L231.598 235.215H354.663Z" fill="#A3C4E8"/>
</g>
<path d="M368.013 459.602C492.822 459.602 594 456.452 594 452.565C594 448.679 492.822 445.528 368.013 445.528C243.204 445.528 142.026 448.679 142.026 452.565C142.026 456.452 243.204 459.602 368.013 459.602Z" fill="#CCCCCC"/>
<path d="M266.175 449.134C266.175 449.134 252.152 439.274 257.491 434.04C262.181 429.43 269.133 446.366 269.133 446.366C269.133 446.366 268.888 433.66 276.323 434.411C283.757 435.162 273.104 449.134 273.104 449.134H266.183H266.175Z" fill="#CCCCCC"/>
<path d="M423.859 449.134C423.859 449.134 409.837 439.274 415.175 434.04C419.865 429.43 426.817 446.366 426.817 446.366C426.817 446.366 426.572 433.66 434.007 434.411C441.441 435.162 430.788 449.134 430.788 449.134H423.867H423.859Z" fill="#CCCCCC"/>
<path d="M170.483 449.663C170.483 449.663 164.132 440.579 170.483 437.637C176.834 434.704 188.381 448.635 188.381 448.635C188.381 448.635 187.986 439.321 194.432 441.717C200.878 444.113 202.61 449.663 202.61 449.663H170.483Z" fill="#CCCCCC"/>
<path d="M349.735 447.402C349.735 447.402 356.086 438.317 349.735 435.376C343.384 432.443 331.845 446.374 331.845 446.374C331.845 446.374 332.24 437.06 325.794 439.456C319.348 441.852 317.616 447.402 317.616 447.402H349.735Z" fill="#CCCCCC"/>
<path d="M534.801 448.809C534.801 448.809 541.152 439.725 534.801 436.783C528.45 433.85 516.91 447.782 516.91 447.782C516.91 447.782 517.306 438.467 510.86 440.863C504.414 443.259 502.682 448.809 502.682 448.809H534.801Z" fill="#CCCCCC"/>
<path d="M239.458 188.497C239.458 188.497 244.915 191.035 248.261 198.942C251.606 206.849 260.473 226.26 265.234 225.943C269.995 225.627 280.87 219.697 280.87 219.697C286.422 218.985 291.097 255.601 285.544 256.313C285.544 256.313 282.578 259.887 267.757 254.154C252.927 248.422 247.628 246.319 244.385 229.256C241.135 212.194 239.458 188.505 239.458 188.505V188.497Z" fill="#2AD883"/>
<path d="M263.992 225.92C261.603 228.165 260.219 231.241 260.109 234.514C260.101 234.799 260.544 234.799 260.551 234.514C260.654 231.351 261.999 228.402 264.308 226.236C264.514 226.038 264.205 225.722 263.992 225.92Z" fill="#747D86"/>
<path d="M220.611 430.355L215.945 442.99L208.296 442.974V429.058L220.611 430.355Z" fill="#EBB3AB"/>
<path d="M222.548 453.688H205.164C205.164 453.688 204.785 452.96 205.22 451.015C205.283 450.715 205.37 450.383 205.481 450.019C205.481 450.003 205.488 449.98 205.496 449.964C205.662 449.426 205.844 448.762 206.042 448.05C206.841 445.141 207.774 441.338 207.774 441.338C207.774 441.338 210.669 435.147 214.054 436.696C217.02 438.048 216.316 441.931 216.316 441.931C216.316 441.931 216.609 444.208 218.855 446.216C220.247 447.457 221.631 448.414 222.295 449.964C222.422 450.256 222.517 450.557 222.588 450.889C222.596 450.928 222.604 450.968 222.612 451.015C222.746 451.759 222.738 452.628 222.541 453.688H222.548Z" fill="#2AD883"/>
<path d="M222.548 453.688H205.164C205.164 453.688 204.785 452.96 205.22 451.015H222.62C222.754 451.759 222.746 452.628 222.548 453.688Z" fill="#747D86"/>
<path d="M300.872 209.695C300.872 209.695 286.169 217.839 277.77 223.184C273.61 225.817 273.697 240.586 277.833 240.586C291.089 233.186 304.257 214.755 304.257 214.755C305.436 213.672 302.051 208.62 300.872 209.703V209.695Z" fill="#EBB3AB"/>
<path d="M299.282 211.276C299.282 211.276 299.243 208.043 301.022 205.868C302.802 203.702 303.751 201.535 305.167 200.009C306.582 198.483 306.226 201.203 305.768 202.658C305.309 204.105 304.803 205.75 305.831 205.797C306.859 205.844 315.354 201.361 316.754 201.599C318.153 201.836 316.935 202.998 316.935 202.998C316.935 202.998 318.842 202.01 319.514 202.69C320.178 203.37 319.103 204.358 319.103 204.358C319.103 204.358 320.4 203.741 320.574 204.722C320.748 205.702 313.859 210.47 314.151 210.96C314.452 211.45 317.473 207.608 318.454 208.264C319.435 208.92 317.022 210.723 315.259 212.375C313.503 214.028 311.225 215.238 308.995 215.427C306.764 215.609 302.944 217.175 301.465 215.151C299.986 213.119 299.29 211.284 299.29 211.284L299.282 211.276Z" fill="#EBB3AB"/>
<path d="M319.087 204.081C316.825 205.275 314.602 206.54 312.427 207.876C312.166 208.035 312.459 208.406 312.712 208.248C314.855 206.936 317.046 205.686 319.269 204.516C319.53 204.374 319.356 203.947 319.087 204.081Z" fill="#A3562C"/>
<path d="M316.801 202.958C315.005 203.702 313.321 204.643 311.739 205.765C311.494 205.939 311.778 206.311 312.024 206.137C313.574 205.03 315.227 204.121 316.983 203.385C317.26 203.267 317.078 202.84 316.801 202.951V202.958Z" fill="#A3562C"/>
<path d="M313.384 209.908C312.941 208.003 312.087 206.264 310.83 204.761C310.64 204.532 310.26 204.817 310.458 205.046C311.66 206.485 312.498 208.145 312.918 209.98C312.981 210.272 313.447 210.209 313.384 209.916V209.908Z" fill="#A3562C"/>
<path d="M309.762 207.813C306.851 207.718 304.313 209.339 303.166 212.027C303.047 212.304 303.482 212.486 303.601 212.201C304.653 209.719 307.01 208.193 309.707 208.28C310.007 208.288 310.063 207.821 309.762 207.813Z" fill="#A3562C"/>
<path d="M251.4 247.054C251.4 247.054 264.11 257.507 284.975 261.286C305.839 265.074 295.676 282.326 306.092 311.913C310.434 324.239 325.351 340.393 325.351 340.393C325.351 340.393 308.639 355.85 283.424 350.26C258.21 344.678 258.566 340.235 242.384 339.895C226.202 339.555 220.017 286.991 220.017 286.991L251.408 247.046L251.4 247.054Z" fill="#2AD883"/>
<path d="M325.351 340.401C325.351 340.401 315.156 341.081 297.234 321.448C278.569 301.002 288.7 276.633 263.699 280.207C246.236 282.705 239.877 316.459 228.86 319.946C217.842 323.433 238.082 341.816 255.743 348.671C294.213 363.599 325.454 341.737 325.359 340.401H325.351Z" fill="#B9B7B4"/>
<path d="M188.903 355.937C188.903 355.937 189.836 364.057 203.345 357.811C216.854 351.565 219.701 337.839 242.25 339.207C242.25 339.207 243.974 316.167 225.704 317.874C207.434 319.582 191.703 345.524 188.903 355.929V355.937Z" fill="#B9B7B4"/>
<path d="M225.269 265.232C225.269 265.232 246.576 350.885 245.746 362.713C244.915 374.542 222.208 432.292 222.208 432.292L204.563 430.055C207.347 390.64 211.895 362.777 214.07 357.242C214.07 357.242 189.82 289.964 190.667 275.748C191.513 261.531 225.261 265.232 225.261 265.232H225.269Z" fill="white"/>
<path d="M243.342 363.227C240.558 364.413 237.489 364.5 234.626 363.52C234.262 363.393 234.112 363.97 234.468 364.089C237.489 365.125 240.708 364.983 243.634 363.741C243.982 363.591 243.682 363.085 243.334 363.227H243.342Z" fill="#B9B7B4"/>
<path d="M208.739 427.999C208.597 427.999 208.415 427.92 208.328 427.699C207.837 426.465 209.538 408.533 211.381 393.32C212.844 381.294 215.58 361.061 217.779 358.135L206.975 325.149C206.904 324.943 207.023 324.722 207.228 324.651C207.434 324.579 207.656 324.698 207.727 324.904L218.602 358.104C218.649 358.254 218.602 358.42 218.491 358.523C217.028 359.835 214.671 372.81 212.187 393.241C210.139 410.098 208.771 425.872 209.055 427.359C209.103 427.422 209.135 427.501 209.142 427.596C209.142 427.817 208.976 427.999 208.755 427.999C208.755 427.999 208.755 427.999 208.747 427.999H208.739Z" fill="#B9B7B4"/>
<path d="M224.565 428.299L223.031 433.241L203.345 430.624L204.634 424.876L224.565 428.299Z" fill="#B9B7B4"/>
<path d="M276.061 362.935L271.292 373.625L261.951 371.577L263.77 360.412L276.061 362.935Z" fill="#EBB3AB"/>
<path d="M257.071 383.366L263.343 385.651C263.343 385.651 264.854 385.437 265.566 385.801C266.277 386.165 268.674 387.596 268.674 387.596L285.323 393.66C285.441 392.917 285.505 392.237 285.52 391.612C285.536 390.861 285.481 390.189 285.362 389.604C284.943 387.548 283.757 386.433 282.262 385.777C279.984 384.781 274.432 377.214 274.432 377.214C274.432 377.214 272.107 375.317 273 372.431C273.332 371.347 272.241 369.481 271.529 369.102C270.09 368.327 268.887 368.983 268.112 370.422L267.211 372.099L263.897 370.272C263.897 370.272 260.978 367.165 260.512 368.983C260.251 370.019 259.23 374.684 258.321 378.345C258.107 379.199 257.91 380.005 257.736 380.717C257.348 382.29 257.079 383.374 257.079 383.374L257.071 383.366Z" fill="#2AD883"/>
<path d="M257.071 383.366L263.343 385.651C263.343 385.651 264.854 385.437 265.566 385.801C266.277 386.165 268.674 387.596 268.674 387.596L285.323 393.66C285.441 392.917 285.505 392.237 285.52 391.612L257.728 380.709C257.34 382.282 257.071 383.366 257.071 383.366Z" fill="#747D86"/>
<path d="M246.734 262.314C246.734 262.314 294.695 257.578 300.421 268.489C307.872 282.698 278.513 364.643 278.513 364.643L259.325 358.507C259.325 358.507 268.619 300.179 269.307 292.541C269.307 292.541 234.008 301.104 221.33 297.531C208.652 293.957 216.608 270.687 216.608 270.687L246.75 262.314H246.734Z" fill="white"/>
<path d="M299.077 267.706C297.677 269.517 295.834 270.845 293.667 271.581C293.311 271.699 293.461 272.277 293.825 272.15C296.087 271.383 298.033 270.015 299.496 268.125C299.725 267.825 299.306 267.406 299.077 267.706Z" fill="#B9B7B4"/>
<path d="M281.068 361.235L278.798 366.69L257.696 360.737L258.74 354.135L281.068 361.235Z" fill="#B9B7B4"/>
<path d="M263.984 354.822C266.791 337.412 269.813 320.041 272.201 302.559C272.905 297.42 273.554 292.265 274.107 287.102C274.123 286.92 273.902 286.746 273.736 286.817C263.533 290.818 252.515 292.478 241.585 291.664C241.205 291.632 241.205 292.225 241.585 292.257C252.563 293.071 263.644 291.403 273.894 287.386C273.767 287.291 273.641 287.196 273.522 287.102C271.537 305.564 268.492 323.907 265.463 342.219C264.775 346.362 264.086 350.505 263.422 354.656C263.359 355.028 263.936 355.194 263.992 354.815L263.984 354.822Z" fill="#B9B7B4"/>
<path d="M266.547 261.302C266.547 261.302 248.269 265.556 249.866 283.915C252.508 314.119 229.469 321.448 229.469 321.448L222.208 303.888L226.819 267.026C226.819 267.026 254.248 253.625 266.547 261.31V261.302Z" fill="#2AD883"/>
<path d="M192.058 252.478L190.666 275.748C191.544 284.318 243.721 268.552 265.226 260.875C256.004 254.732 250.879 249.347 249.241 239.733C245.817 218.479 244.029 190.205 239.45 188.497C234.554 186.671 231.406 185.872 228.852 185.295C225.712 184.583 223.473 184.188 220.017 182.591C219.464 182.338 218.902 182.053 218.333 181.753C216.909 180.994 206.366 182.354 206.366 182.354C206.366 182.354 205.868 182.741 205.006 183.405C203.345 184.686 200.331 187.003 196.93 189.604C192.035 193.352 186.34 197.677 182.742 200.326C178.107 203.733 187.012 231.676 192.058 252.47V252.478Z" fill="#2AD883"/>
<path d="M218.008 204.508C219.376 212.976 220.753 221.444 222.382 229.865C223.972 238.088 225.712 246.35 228.163 254.36C229.223 257.823 230.544 261.27 232.6 264.283C233.526 265.643 234.562 267.208 236.247 267.643C237.496 267.967 238.841 267.738 240.075 267.446C241.965 267.003 243.808 266.339 245.651 265.73C252.46 263.484 259.365 261.911 266.546 261.531C266.831 261.516 266.831 261.073 266.546 261.089C260.267 261.429 254.113 262.607 248.11 264.473C246.03 265.121 243.982 265.848 241.902 266.481C240.47 266.916 238.967 267.374 237.457 267.351C236.001 267.327 235.036 266.679 234.127 265.58C231.738 262.686 230.212 259.199 229.041 255.665C226.518 248.035 224.857 240.065 223.284 232.197C221.441 222.97 219.93 213.68 218.427 204.39C218.38 204.105 217.953 204.224 218 204.508H218.008Z" fill="#747D86"/>
<path d="M243.943 203.425C245.572 214.32 247.201 225.216 248.83 236.111C249.242 238.879 249.661 241.646 250.072 244.405C250.112 244.69 250.547 244.571 250.499 244.287C248.87 233.391 247.241 222.496 245.611 211.601L244.37 203.306C244.33 203.022 243.895 203.14 243.943 203.425Z" fill="#747D86"/>
<path d="M196.931 189.604C203.527 197.21 218.206 204.018 218.206 204.018C220.927 200.737 227.175 189.541 228.852 185.295C227.911 185.081 227.049 184.892 226.21 184.694C224.257 184.235 222.438 183.706 220.017 182.591C219.464 182.338 218.902 182.053 218.333 181.753C216.909 180.994 206.366 182.354 206.366 182.354C206.366 182.354 205.868 182.741 205.006 183.405C203.661 184.441 201.423 186.165 198.821 188.157C198.212 188.624 197.579 189.106 196.931 189.604Z" fill="#F1F1F1"/>
<path d="M224.051 184.259C223.102 186.584 221.931 188.805 220.547 190.901C220.468 191.027 220.326 191.051 220.199 190.996C219.29 190.561 218.38 190.134 217.463 189.699C217.162 189.557 217.423 189.114 217.724 189.256L220.46 190.553C220.342 190.584 220.223 190.616 220.112 190.648C221.473 188.592 222.635 186.41 223.569 184.125C223.695 183.824 224.186 183.959 224.059 184.259H224.051Z" fill="#CCCCCC"/>
<path d="M201.265 186.331C204.452 188.513 207.552 190.917 210.922 192.814C210.803 192.846 210.684 192.877 210.574 192.909C211.214 192.071 211.894 191.264 212.511 190.403C212.701 190.134 213.144 190.395 212.954 190.664C212.337 191.517 211.657 192.332 211.017 193.17C210.93 193.281 210.803 193.336 210.669 193.265C207.299 191.367 204.199 188.964 201.012 186.781C200.743 186.6 200.996 186.149 201.273 186.339L201.265 186.331Z" fill="#CCCCCC"/>
<path d="M218.317 189.612L214.868 186.71L212.021 191.011L216.513 194.482L218.317 189.612Z" fill="#2AD883"/>
<path d="M217.083 191.209L219.479 196.309L217.407 199.899L213.445 197.89L214.694 191.85L217.083 191.209Z" fill="#2AD883"/>
<path d="M196.931 189.604C203.527 197.21 218.206 204.018 218.206 204.018C220.927 200.737 227.175 189.541 228.852 185.295C227.911 185.081 227.049 184.892 226.21 184.694L217.407 199.891C217.407 199.891 203.582 193.289 198.821 188.157C198.212 188.624 197.579 189.106 196.931 189.604Z" fill="#97722F"/>
<path d="M192.866 157.819C192.905 162.025 194.898 165.837 195.468 169.956C195.903 173.103 195.357 176.542 192.85 178.724C192.565 178.977 192.138 178.558 192.431 178.305C195.31 175.799 195.341 171.774 194.566 168.327C193.767 164.817 192.304 161.464 192.272 157.811C192.272 157.432 192.866 157.432 192.866 157.811V157.819Z" fill="#97722F"/>
<path d="M191.569 178.313C191.569 178.97 192.099 179.499 192.755 179.499C193.412 179.499 193.942 178.97 193.942 178.313C193.942 177.657 193.412 177.127 192.755 177.127C192.099 177.127 191.569 177.657 191.569 178.313Z" fill="#97722F"/>
<path d="M192.866 178.124C192.866 178.124 193.522 181.784 192.383 183.429L188.468 181.294C188.468 181.294 189.33 179.389 192.866 178.124Z" fill="#97722F"/>
<path d="M217.779 165.093C217.771 164.959 220.01 161.425 222.161 163.338C224.312 165.251 222.96 169.948 218.293 169.142L217.779 165.093Z" fill="#A3562C"/>
<path d="M206.738 184.694C206.738 184.694 210.226 187.675 214.576 187.082C218.926 186.489 219.851 184.291 219.851 184.291C218.863 182.211 218.791 182.029 218.246 179.974C217.708 177.934 217.407 176.408 217.407 176.408L208.929 174.32L206.785 173.791C207.663 178.78 207.734 180.772 206.73 184.686L206.738 184.694Z" fill="#EBB3AB"/>
<path d="M207.323 174.273C207.323 174.273 209.672 179.476 217.368 179.974C217.684 179.997 217.977 179.997 218.246 179.982C217.708 177.942 217.407 176.416 217.407 176.416L208.929 174.328L207.315 174.273H207.323Z" fill="#2AD883"/>
<path d="M201.605 161.551L201.779 162.816C201.779 162.816 202.886 168.833 205.077 172.462C207.489 176.455 215.161 180.163 219.163 175.886C222.184 172.66 221.583 160.658 221.583 160.658L221.338 158.863C220.729 154.411 216.411 152.024 211.95 151.454C211.879 151.446 212.021 151.462 211.95 151.454C205.512 150.719 200.727 155.131 201.597 161.551H201.605Z" fill="#EBB3AB"/>
<path d="M219.654 163.907C219.108 163.117 218.191 162.792 217.265 163.022C216.522 163.204 216.205 162.057 216.949 161.875C218.42 161.519 219.828 162.065 220.682 163.306C221.117 163.939 220.089 164.532 219.662 163.907H219.654Z" fill="#2AD883"/>
<path d="M211.436 164.848C211.808 163.963 212.646 163.465 213.603 163.496C214.363 163.52 214.45 162.342 213.682 162.31C212.172 162.255 210.898 163.077 210.313 164.461C210.012 165.164 211.143 165.544 211.436 164.84V164.848Z" fill="#2AD883"/>
<path d="M214.022 166.722C213.674 166.026 212.963 165.734 212.227 165.987C211.958 166.082 211.84 165.647 212.108 165.56C213.018 165.251 213.975 165.639 214.402 166.501C214.529 166.754 214.149 166.983 214.015 166.722H214.022Z" fill="#2AD883"/>
<path d="M219.511 165.354C218.871 165.236 218.301 165.71 218.269 166.358C218.254 166.643 217.811 166.643 217.827 166.358C217.874 165.402 218.697 164.761 219.63 164.927C219.915 164.975 219.788 165.41 219.511 165.354Z" fill="#2AD883"/>
<path d="M215.296 163.765C215.122 165.449 216 166.864 217.558 167.497C217.526 167.37 217.494 167.252 217.463 167.125C216.878 167.639 216.269 168.106 215.62 168.541C215.383 168.699 215.604 169.086 215.841 168.928C216.522 168.477 217.162 167.987 217.779 167.442C217.914 167.323 217.827 167.125 217.684 167.07C216.308 166.516 215.596 165.228 215.747 163.773C215.778 163.488 215.327 163.488 215.304 163.773L215.296 163.765Z" fill="#2AD883"/>
<path d="M213.128 170.169C214.694 170.288 216.395 170.075 218.72 169.853C218.72 169.853 218.649 172.225 216.466 172.636C214.283 173.04 213.136 170.177 213.136 170.177L213.128 170.169Z" fill="#F1F1F1"/>
<path d="M206.208 166.667C206.176 166.532 203.076 163.725 201.518 166.145C199.96 168.564 202.515 172.731 206.801 170.707L206.216 166.667H206.208Z" fill="#EBB3AB"/>
<path d="M204.642 171.529C205.409 171.569 206.311 171.458 206.904 170.928C207.118 170.739 206.801 170.422 206.588 170.612C206.09 171.063 205.283 171.118 204.642 171.087C204.358 171.071 204.358 171.514 204.642 171.529Z" fill="#2AD883"/>
<path d="M202.198 167.544C203.305 167.948 204.231 168.675 204.887 169.648C205.045 169.885 205.433 169.663 205.275 169.426C204.547 168.351 203.543 167.56 202.325 167.117C202.056 167.023 201.937 167.45 202.206 167.544H202.198Z" fill="#2AD883"/>
<path d="M214.987 173.838C215.889 174.384 217.162 174.502 217.922 173.664C218.088 173.474 217.811 173.198 217.645 173.387C216.996 174.099 215.937 173.957 215.177 173.498C214.964 173.364 214.766 173.704 214.98 173.838H214.987Z" fill="#A3562C"/>
<path d="M202.356 165.354C202.356 165.354 205.275 164.571 206.224 166.841L207.442 166.358C207.442 166.358 205.473 162.46 206.2 160.76C206.928 159.06 213.105 162.326 212.781 159.962C212.781 159.962 222.335 161.527 221.227 158.175C220.84 157.005 221.378 152.545 214.9 151.241C207.173 149.691 197.508 154.372 202.364 165.354H202.356Z" fill="#2AD883"/>
<path d="M230.877 152.395L211.009 140.93L188.247 159.092L213.057 160.974L230.877 152.395Z" fill="#2AD883"/>
<path d="M220.698 155.613C220.698 155.613 220.713 152.103 218.712 149.928C218.712 149.928 207.323 146.631 199.675 155.763C199.106 158.033 200.063 160.183 201.502 162.31C201.502 162.31 210.02 150.237 220.698 155.613Z" fill="#464C54"/>
<path d="M220.089 156.04L221.639 163.148C221.639 163.148 222.24 160.99 222.169 159.385C221.987 155.012 220.089 156.04 220.089 156.04Z" fill="#2AD883"/>
<path d="M230.758 262.314C230.758 262.314 233.922 274.316 241.317 297.578C245.097 309.478 236.12 317.795 236.12 317.795C236.12 317.795 191.948 340.749 188.895 355.937C188.895 355.937 189.805 313.668 190.643 286.169C191.473 258.93 189.923 244.777 186.831 232.277C183.738 219.776 230.758 262.314 230.758 262.314Z" fill="#2AD883"/>
<path d="M191.268 234.933C196.203 247.695 197.975 261.373 198.426 274.981C198.655 281.899 198.647 288.849 198.212 295.759C197.761 302.931 196.954 310.078 196.401 317.242C195.784 325.259 195.499 333.324 196.393 341.326C196.425 341.61 196.867 341.61 196.836 341.326C195.23 326.888 197.461 312.45 198.497 298.06C199.003 291.102 199.09 284.129 198.924 277.163C198.766 270.418 198.315 263.682 197.35 257.001C196.251 249.426 194.455 241.954 191.695 234.815C191.592 234.554 191.165 234.664 191.268 234.933Z" fill="#747D86"/>
<path d="M196.416 225.825C193.545 229.999 190.73 234.214 188.056 238.523C187.906 238.768 188.286 238.989 188.444 238.744C191.117 234.435 193.933 230.221 196.804 226.046C196.97 225.809 196.583 225.587 196.416 225.825Z" fill="#747D86"/>
<path d="M182.742 200.333C182.742 200.333 161.458 227.706 158.888 244.35C156.317 260.994 160.92 274.04 160.92 274.04C164.559 280.673 190.326 266.56 186.688 259.926C186.688 259.926 182.931 247.228 188.903 235.336L182.742 200.326V200.333Z" fill="#2AD883"/>
<path d="M186.055 243.496C183.888 240.673 180.717 238.871 177.174 238.46C176.889 238.428 176.889 238.871 177.174 238.902C180.535 239.298 183.604 241.037 185.668 243.725C185.842 243.947 186.229 243.725 186.055 243.504V243.496Z" fill="#747D86"/>
<path d="M167.699 270.474C174.722 284.872 187.155 296.178 187.155 296.178C188.041 297.349 192.691 293.49 191.798 292.328C191.798 292.328 186.158 274.712 182.164 263.097C180.701 260.227 166.227 267.604 167.691 270.474H167.699Z" fill="#EBB3AB"/>
<path d="M167.936 316.467C165.769 318.713 177.158 329.695 179.325 327.45C179.325 327.45 190.176 313.02 199.636 301.808C209.024 290.676 222.975 282.31 223.165 282.192C221.971 279.63 220.318 277.329 218.309 275.4C216.308 273.471 213.943 271.905 211.333 270.798C211.254 270.94 209.672 273.795 207.007 277.78C203.646 282.793 198.568 289.592 192.589 295.024C181.729 304.876 167.936 316.475 167.936 316.475V316.467Z" fill="#B49346"/>
<path d="M211.341 270.79C211.302 270.932 210.685 273.281 215.351 277.78C220.096 282.35 223.078 282.184 223.165 282.176C221.971 279.614 220.318 277.313 218.309 275.384C216.308 273.455 213.943 271.889 211.333 270.782L211.341 270.79Z" fill="#97722F"/>
<path d="M213.817 274.989C213.073 274.079 213.081 273.779 213.184 273.605C213.247 273.502 213.35 273.447 213.477 273.439C214.386 273.391 217.281 275.937 219.329 278.586C219.393 278.665 219.377 278.784 219.298 278.847C219.219 278.91 219.1 278.894 219.037 278.815C216.648 275.716 214.022 273.771 213.524 273.803C213.524 273.803 213.508 273.803 213.5 273.803C213.484 274.459 217.581 278.491 219.693 279.693C220.326 280.057 220.476 279.97 220.476 279.97C220.476 279.97 220.492 279.946 220.492 279.891C220.492 278.341 216 274.079 214.465 273.573C214.37 273.542 214.315 273.439 214.347 273.336C214.378 273.241 214.481 273.186 214.584 273.217C215.351 273.47 216.877 274.649 218.301 276.08C219.068 276.855 220.856 278.768 220.864 279.891C220.864 280.183 220.698 280.286 220.595 280.326C220.563 280.341 220.524 280.341 220.484 280.349C219.282 280.428 215.114 276.578 213.809 274.989H213.817Z" fill="#B9B7B4"/>
<path d="M201.858 299.294C201.858 299.294 200.988 301.935 199.074 303.287C196.986 304.749 189.979 298.037 191.086 295.91C192.17 293.814 194.969 292.747 194.969 292.747C194.25 293.427 193.664 294.075 193.111 294.542C193.111 294.542 193.19 296.147 195.847 298.709C198.505 301.27 200.229 301.089 200.229 301.089L201.858 299.294Z" fill="#D0BC70"/>
<path d="M198.117 302.377L197.484 301.5L198.552 301.349C198.631 301.342 200.561 301.065 202.602 301.033C205.686 300.986 207.3 301.5 207.671 302.654C207.869 303.271 207.616 303.856 206.999 304.164C205.757 304.797 203.084 304.33 202.301 304.164C201.368 303.974 199.216 303.468 198.315 302.599C198.236 302.528 198.172 302.449 198.117 302.369V302.377ZM202.633 302.338C201.985 302.346 201.352 302.385 200.782 302.425C201.763 302.749 203.044 303.034 204.294 303.144C205.591 303.255 206.208 303.105 206.414 303.01C206.295 302.844 205.678 302.29 202.641 302.338H202.633Z" fill="#D0BC70"/>
<path d="M198.916 306.362C198.616 305.374 197.967 302.947 198.505 301.824L198.971 300.851L199.612 301.721C199.66 301.784 200.814 303.35 201.811 305.129C203.321 307.825 203.63 309.485 202.792 310.363C202.341 310.838 201.708 310.885 201.146 310.49C201.052 310.426 200.965 310.355 200.878 310.268C199.873 309.296 199.13 307.066 198.908 306.354L198.916 306.362ZM200.688 305.777C200.371 305.216 200.039 304.67 199.731 304.188C199.913 305.2 200.269 306.473 200.767 307.619C201.281 308.813 201.708 309.288 201.89 309.422C201.985 309.24 202.175 308.434 200.688 305.785V305.777Z" fill="#D0BC70"/>
<path d="M192.739 291.102C192.739 291.102 197.287 296.202 200.102 297.198C202.918 298.195 205.481 299.563 204.714 300.306C203.946 301.049 202.61 301.033 202.61 301.033C202.61 301.033 202.61 302.717 202.056 303.152C201.51 303.587 199.913 303.5 199.913 303.5C199.913 303.5 200.561 305.69 199.739 306.022C198.924 306.354 197.311 306.694 197.311 306.694C197.311 306.694 197.358 307.667 196.274 308.355C195.191 309.043 190.841 312.585 186.04 299.238C184.996 296.345 192.747 291.094 192.747 291.094L192.739 291.102Z" fill="#EBB3AB"/>
<path d="M183.145 292.786L186.103 299.223L195.048 293.269L190.295 288.454C189.283 287.189 182.141 291.521 183.153 292.786H183.145Z" fill="#EBB3AB"/>
<path d="M192.739 291.102C192.739 291.102 196.171 288.517 198.679 288.952L194.558 293.332L192.739 291.094V291.102Z" fill="#EBB3AB"/>
<path d="M404.513 162.334C403.817 166.485 401.247 169.932 400.037 173.917C399.119 176.953 399.111 180.44 401.247 182.986C401.492 183.279 401.974 182.931 401.729 182.638C399.277 179.713 399.878 175.736 401.183 172.454C402.52 169.11 404.489 166.026 405.098 162.429C405.162 162.049 404.576 161.962 404.513 162.334Z" fill="#97722F"/>
<path d="M401.326 182.393C401.326 182.393 400.1 185.904 400.97 187.706L405.17 186.212C405.17 186.212 404.616 184.196 401.326 182.385V182.393Z" fill="#97722F"/>
<path d="M400.044 183.136C400.234 183.761 400.899 184.117 401.531 183.919C402.156 183.729 402.512 183.065 402.314 182.433C402.125 181.808 401.46 181.452 400.827 181.65C400.203 181.84 399.847 182.504 400.044 183.136Z" fill="#97722F"/>
<path d="M320.408 325.813C320.408 325.813 319.791 334.32 331.457 334.123C343.123 333.925 357.351 326.216 379.299 335.506C401.247 344.797 410.342 342.385 410.081 338.867C409.82 335.348 380.09 304.678 352.21 305.469C324.339 306.26 320.4 325.813 320.4 325.813H320.408Z" fill="#745423"/>
<path d="M424.998 353.945L444.881 348.663C447.649 352.166 449.105 354.854 446.178 357.867L429.363 365.71L424.998 353.945Z" fill="#EBB3AB"/>
<path d="M446.447 347.501C445.024 347.477 443.632 347.975 442.588 348.94C442.232 349.272 441.995 349.58 442.082 349.794C442.35 350.442 445.593 354.174 446.131 355.186C446.669 356.206 442.169 359.179 442.161 359.733C442.153 360.294 444.17 360.033 446.273 360.618C448.377 361.203 453.621 369.624 455.495 373.142C457.37 376.661 457.702 366.975 457.575 363.235C457.449 359.495 457.338 354.728 457.338 354.728C457.338 354.728 451.675 352.711 451.691 352.071C451.699 351.43 457.314 351.517 457.322 350.411C457.33 349.311 457.362 347.659 457.362 347.659L446.455 347.493L446.447 347.501Z" fill="#2AD883"/>
<path d="M368.827 420.662L374.411 440.46C370.947 443.283 368.281 444.777 365.228 441.891L357.129 425.2L368.827 420.662Z" fill="#EBB3AB"/>
<path d="M375.598 442.002C375.598 440.579 375.076 439.195 374.095 438.159C373.763 437.803 373.438 437.574 373.233 437.661C372.592 437.938 368.906 441.235 367.894 441.788C366.882 442.342 363.845 437.89 363.283 437.89C362.722 437.89 363.014 439.906 362.461 442.018C361.907 444.129 353.563 449.497 350.075 451.427C346.587 453.356 356.276 453.538 360.009 453.356C363.742 453.174 368.519 452.992 368.519 452.992C368.519 452.992 370.449 447.307 371.089 447.307C371.73 447.307 371.73 452.921 372.829 452.913C373.929 452.913 375.582 452.913 375.582 452.913V442.01L375.598 442.002Z" fill="#2AD883"/>
<path d="M344.53 276.91C344.53 276.91 332.192 330.865 335.72 363.164C339.247 395.471 353.27 434.229 353.27 434.229L375.597 425.714C375.597 425.714 360.103 378.139 360.254 353.763C360.404 329.387 366.28 289.505 366.28 289.505L344.538 276.902L344.53 276.91Z" fill="white"/>
<path d="M391.305 319.495C391.305 319.495 391.701 351.083 393.678 353.866C395.655 356.649 434.204 349.335 434.204 349.335L439.345 364.635C439.345 364.635 402.576 376.803 385.769 378.384C368.962 379.966 365.767 318.499 365.767 318.499L391.305 319.487V319.495Z" fill="white"/>
<path d="M398.549 360.065C398.383 360.065 398.217 360.065 398.059 360.065C393.44 360.001 390.846 359.108 390.142 357.329C387.382 350.363 387.35 330.857 387.35 330.035C387.35 329.814 387.524 329.64 387.746 329.64C387.967 329.64 388.141 329.814 388.141 330.035C388.141 330.233 388.173 350.213 390.878 357.036C391.518 358.649 394.413 359.274 398.431 359.274C407.977 359.274 423.906 355.787 431.301 353.858C431.515 353.802 431.728 353.929 431.784 354.142C431.839 354.356 431.712 354.569 431.499 354.625C431.404 354.649 421.834 357.123 412.058 358.72C406.569 359.614 402.029 360.065 398.557 360.065H398.549Z" fill="#745423"/>
<path d="M434.852 366.105C434.678 366.105 434.52 365.987 434.473 365.813L430.289 350.561C430.234 350.347 430.352 350.134 430.566 350.078C430.779 350.023 430.993 350.142 431.048 350.355L435.232 365.607C435.287 365.821 435.169 366.034 434.955 366.09C434.924 366.097 434.884 366.105 434.852 366.105Z" fill="#745423"/>
<path d="M344.831 361.456C341.936 362.571 339.208 362.745 336.186 362.049C335.736 361.946 335.925 361.259 336.376 361.361C339.271 362.033 341.873 361.836 344.641 360.768C345.068 360.602 345.258 361.29 344.831 361.456Z" fill="#745423"/>
<path d="M360.823 300.401C359.787 315.123 357.691 329.75 356.718 344.48C356.339 350.276 355.991 356.206 356.687 361.994C357.849 371.585 359.748 381.096 361.978 390.498C364.469 400.998 367.42 411.379 370.488 421.721C370.623 422.164 369.927 422.354 369.8 421.911C364.303 403.417 359.155 384.733 356.45 365.599C356.022 362.579 355.682 359.59 355.619 356.546C355.556 353.415 355.667 350.292 355.833 347.169C356.236 339.768 356.979 332.391 357.739 325.03C358.585 316.831 359.518 308.624 360.096 300.401C360.127 299.942 360.847 299.942 360.807 300.401H360.823Z" fill="#745423"/>
<path d="M351.878 428.75C351.878 428.75 351.949 428.75 351.989 428.734L374.182 421.176C374.364 421.112 374.459 420.923 374.395 420.741C374.332 420.559 374.142 420.464 373.96 420.527L351.767 428.086C351.585 428.149 351.491 428.339 351.554 428.521C351.601 428.663 351.736 428.75 351.878 428.75Z" fill="#745423"/>
<path d="M321.491 325.03C313.835 335.578 347.212 250.723 351.166 233.921C355.121 217.119 355.991 202.737 357.889 192.775C359.574 183.919 364.849 183.532 371.192 181.595C371.841 181.397 372.497 181.183 373.169 180.946C373.32 180.891 373.47 180.836 373.62 180.78C381.015 177.989 384.132 181.523 384.132 181.523C384.132 181.523 386.615 182.899 390.364 184.734C391.099 185.089 391.882 185.469 392.713 185.856C394.635 186.758 396.778 187.722 399.024 188.655C407.123 192.016 400.598 201.701 395.26 214.344C389.921 226.995 390.214 244.967 393.48 254.028C410.097 300.053 409.101 329.173 410.089 338.851C411.078 348.537 340.196 299.254 321.499 325.014L321.491 325.03Z" fill="#2AD883"/>
<path d="M381.458 252.533C380.359 260.867 384.906 269.462 392.404 273.257C392.657 273.383 392.887 273.004 392.626 272.87C385.246 269.138 380.817 260.717 381.893 252.533C381.933 252.249 381.482 252.257 381.45 252.533H381.458Z" fill="#747D86"/>
<path d="M373.81 207.869C370.512 222.132 367.72 236.507 365.506 250.976C363.291 265.477 361.646 280.073 360.768 294.716C360.278 302.836 360.032 310.972 360.072 319.108C360.072 319.393 360.515 319.393 360.515 319.108C360.444 304.662 361.274 290.225 362.753 275.858C364.264 261.144 366.455 246.493 369.191 231.96C370.702 223.935 372.386 215.941 374.229 207.979C374.293 207.702 373.866 207.584 373.802 207.861L373.81 207.869Z" fill="#747D86"/>
<path d="M392.713 185.864C388.007 196.768 374.024 207.932 374.024 207.932C371.121 198.294 371.081 186.196 371.192 181.595C371.841 181.397 372.497 181.183 373.169 180.946C373.32 180.891 373.47 180.836 373.62 180.78C381.015 177.989 384.132 181.523 384.132 181.523C384.132 181.523 386.615 182.899 390.364 184.734C391.099 185.089 391.882 185.469 392.713 185.856V185.864Z" fill="#97722F"/>
<path d="M390.364 184.741C389.778 185.912 388.703 187.453 387.382 189.153C382.731 195.139 375.044 203.03 375.044 203.03C374.016 198.365 373.549 192.269 373.343 187.556C373.209 184.552 373.177 182.109 373.177 180.954C373.328 180.899 373.478 180.843 373.628 180.788C381.023 177.997 384.139 181.531 384.139 181.531C384.139 181.531 386.623 182.907 390.372 184.741H390.364Z" fill="#F1F1F1"/>
<path d="M390.364 184.741C389.779 185.912 388.703 187.453 387.382 189.153C384.163 191.502 380.106 193.668 377.33 192.348C375.4 191.431 374.15 189.557 373.336 187.548C373.201 184.544 373.169 182.101 373.169 180.946C373.32 180.891 373.47 180.836 373.62 180.78C381.015 177.989 384.131 181.523 384.131 181.523C384.131 181.523 386.615 182.899 390.364 184.734V184.741Z" fill="#EBB3AB"/>
<path d="M393.488 186.228C393.488 186.228 411.798 191.13 417.737 187.533C423.677 183.935 422.151 174.668 425.686 175.087C429.221 175.506 435.035 188.181 435.667 197.961C436.3 207.75 434.639 204.184 426.232 207.679C417.279 211.395 395.758 217.942 391.716 213.49C387.675 209.039 393.488 186.228 393.488 186.228Z" fill="#2AD883"/>
<path d="M414.581 188.758C412.525 191.905 411.869 195.74 412.731 199.4C412.794 199.677 413.229 199.559 413.158 199.282C412.319 195.732 412.976 192.031 414.961 188.979C415.119 188.742 414.732 188.513 414.573 188.758H414.581Z" fill="#747D86"/>
<path d="M394.785 214.653C393.156 214.732 391.716 214.273 390.237 213.633C389.976 213.522 389.747 213.901 390.016 214.02C391.566 214.684 393.093 215.182 394.793 215.095C395.078 215.079 395.078 214.637 394.793 214.653H394.785Z" fill="#747D86"/>
<path d="M430.416 197.614C428.375 198.365 422.633 182.717 424.674 181.966C428.248 172.273 432.417 154.569 432.417 154.569C432.353 153.344 437.89 153.439 438.522 154.569C438.522 154.569 437.067 188.576 431.151 196.72C430.93 197.028 430.684 197.321 430.408 197.606L430.416 197.614Z" fill="#EBB3AB"/>
<path d="M445.174 153.083C445.221 155.099 443.458 155.329 440.856 157.131C439.147 158.317 436.79 161.274 434.829 160.009C432.867 158.744 431.649 157.384 431.649 157.384C431.649 157.384 430.012 155.423 430.835 152.957C430.835 152.957 431.839 149.288 432.796 148.806C433.753 148.323 434.987 149.47 434.987 149.47C435.896 149.161 440.421 141.658 441.71 141.397C441.71 141.397 443.181 141.168 442.509 143.049C441.836 144.931 439.448 148.458 439.448 148.458C439.448 148.458 444.288 142.899 445.648 143.026C446.044 143.065 446.289 143.461 446.131 144.038C445.902 144.868 444.976 145.643 444.415 146.299C443.434 147.446 442.042 149.209 441.678 149.81C441.678 149.81 442.857 149.517 443.647 150.086C444.438 150.656 443.655 151.731 443.655 151.731C443.655 151.731 445.134 151.85 445.166 153.091L445.174 153.083Z" fill="#EBB3AB"/>
<path d="M435.501 154C435.643 154.048 435.786 154.079 435.904 154.095C436.292 154.158 436.616 154.095 436.853 153.929C437.051 153.779 437.178 153.557 437.217 153.273C437.257 152.964 437.217 152.64 437.099 152.292C437.051 152.142 436.98 151.992 436.925 151.873C436.387 150.774 435.335 149.857 435.287 149.818C435.208 149.746 435.082 149.754 435.019 149.841C434.947 149.92 434.955 150.047 435.042 150.118C435.05 150.126 436.086 151.027 436.585 152.055C436.632 152.158 436.695 152.292 436.735 152.427C436.838 152.719 436.869 152.988 436.838 153.233C436.814 153.415 436.743 153.55 436.624 153.637C436.482 153.747 436.252 153.779 435.968 153.731C435.857 153.716 435.738 153.684 435.612 153.644C434.568 153.304 433.334 152.277 432.464 151.027C432.401 150.94 432.282 150.917 432.195 150.98C432.108 151.043 432.084 151.162 432.148 151.249C433.081 152.585 434.362 153.644 435.501 154.016V154Z" fill="#5D341E"/>
<path d="M440.658 156.262C441.377 156.475 442.382 156.032 442.516 155.969C442.611 155.922 442.659 155.811 442.611 155.716C442.564 155.621 442.453 155.574 442.358 155.621C441.978 155.795 440.903 156.159 440.515 155.74C439.962 155.147 441.314 153.605 441.836 153.107C441.907 153.036 441.915 152.925 441.852 152.846C441.796 152.767 441.686 152.743 441.599 152.798C441.108 153.099 439.716 153.755 439.171 153.233C439.084 153.146 439.044 153.043 439.052 152.909C439.099 152.079 440.784 150.64 441.425 150.15C441.512 150.086 441.528 149.968 441.464 149.881C441.401 149.794 441.282 149.778 441.195 149.841C440.942 150.031 438.744 151.731 438.672 152.885C438.657 153.13 438.736 153.344 438.91 153.51C439.4 153.984 440.238 153.81 440.887 153.565C440.302 154.285 439.645 155.352 440.238 155.993C440.357 156.119 440.507 156.206 440.665 156.254L440.658 156.262Z" fill="#5D341E"/>
<path d="M439.827 149.612C439.867 149.628 439.914 149.62 439.962 149.612C440.057 149.572 440.104 149.454 440.065 149.359C440.049 149.319 439.63 148.355 438.348 147.793C438.253 147.746 438.135 147.793 438.095 147.896C438.056 147.991 438.095 148.11 438.198 148.149C439.329 148.647 439.709 149.501 439.709 149.509C439.732 149.565 439.78 149.604 439.827 149.62V149.612Z" fill="#5D341E"/>
<path d="M438.838 149.984C438.838 149.984 437.794 150.64 436.75 151.96C436.814 152.095 436.869 152.221 436.917 152.356C437.976 150.996 439.028 150.331 439.052 150.316C439.147 150.252 439.171 150.142 439.115 150.047C439.052 149.952 438.941 149.928 438.846 149.984H438.838Z" fill="#5D341E"/>
<path d="M434.488 157.74C434.481 157.827 434.544 157.906 434.623 157.938L434.67 157.954C434.773 157.954 434.86 157.874 434.868 157.772C434.971 156.246 435.39 154.957 435.936 153.913C435.817 153.897 435.691 153.866 435.556 153.826C435.018 154.902 434.599 156.206 434.488 157.748V157.74Z" fill="#5D341E"/>
<path d="M369.207 173.221C377.662 176.06 392.112 184.781 395.884 183.208C397.664 183.208 398.249 180.472 397.45 179.246C393.44 173.063 396.604 170.588 397.782 165.338C398.961 160.088 394.563 154.743 394.563 154.743L387.073 153.36C381.719 152.371 376.926 151.826 375.415 157.052C375.376 157.171 375.028 159.638 374.806 161.148C374.055 166.177 371.231 166.588 368.542 168.446C366.715 169.711 367.095 172.51 369.199 173.213L369.207 173.221Z" fill="#2AD883"/>
<path d="M369.349 148.023L391.597 142.464L408.491 166.177L384.115 161.164L369.349 148.023Z" fill="#2AD883"/>
<path d="M375.068 181.832C374.577 187.699 382.858 188.133 386.892 184.093C385.792 176.906 387.422 175.688 388.687 169.719L378.397 171.403L378.097 172.36L376.12 178.843L375.06 181.832H375.068Z" fill="#EBB3AB"/>
<path d="M376.127 178.835C382.107 179.578 386.583 173.071 386.583 173.071L378.105 172.352L376.127 178.835Z" fill="#2AD883"/>
<path d="M378.611 164.69C378.65 164.564 377.314 160.618 374.783 161.962C372.252 163.306 372.458 168.177 377.163 168.485L378.611 164.69Z" fill="#5D341E"/>
<path d="M373.81 169.118C374.491 169.118 375.044 168.566 375.044 167.884C375.044 167.203 374.491 166.651 373.81 166.651C373.129 166.651 372.576 167.203 372.576 167.884C372.576 168.566 373.129 169.118 373.81 169.118Z" fill="#F1F1F1"/>
<path d="M394.318 164.089L393.852 165.275C393.852 165.275 391.368 170.841 388.394 173.83C385.12 177.127 373.96 177.451 373.565 170.549C373.407 167.734 375.953 158.855 375.953 158.855L375.858 156.855C377.488 152.688 381.751 151.549 386.196 152.047C386.267 152.047 386.196 152.047 386.259 152.071C391.874 153.826 396.667 158.088 394.318 164.097V164.089Z" fill="#EBB3AB"/>
<path d="M379.275 151.612C379.275 151.612 380.754 158.974 388.466 162.864L389.241 166.627L392.658 168.525C392.658 168.525 401.666 155.384 389.589 151.399L379.283 151.612H379.275Z" fill="#2AD883"/>
<path d="M378.658 171.79C377.859 172.043 376.847 171.901 376.412 171.102C376.317 170.928 376.586 170.762 376.681 170.936C377.053 171.608 377.899 171.703 378.571 171.49C378.761 171.427 378.856 171.727 378.658 171.79Z" fill="#5D341E"/>
<path d="M380.81 168.683C379.03 168.501 378.152 168.327 375.882 167.845C375.882 167.845 375.637 170.43 377.804 170.849C380.098 171.284 380.81 168.691 380.81 168.691V168.683Z" fill="#F1F1F1"/>
<path d="M386.892 171.529C387.295 172.043 387.873 172.336 388.482 172.534C388.695 172.605 388.553 172.921 388.339 172.858C387.675 172.636 387.05 172.296 386.607 171.743C386.465 171.569 386.75 171.355 386.892 171.537V171.529Z" fill="#2AD883"/>
<path d="M388.11 162.713C388.11 162.713 386.749 167.03 389.865 167.789C392.982 168.549 392.001 161.82 388.11 162.713Z" fill="#2AD883"/>
<path d="M378.682 160.982C377.891 160.705 376.404 160.452 375.598 162.081C375.598 162.081 377.306 161.448 378.089 161.946C378.35 162.113 378.571 162.12 378.745 162.049C379.212 161.852 379.157 161.156 378.674 160.99L378.682 160.982Z" fill="#2AD883"/>
<path d="M383.293 162.445C384.107 162.634 385.499 163.219 385.302 165.03C385.302 165.03 384.202 163.575 383.269 163.575C382.961 163.575 382.763 163.465 382.66 163.306C382.367 162.887 382.795 162.334 383.293 162.445Z" fill="#2AD883"/>
<path d="M378.342 167.355C378.089 166.849 377.883 166.327 377.646 165.813C377.59 165.702 377.685 165.599 377.788 165.576C378.16 165.497 378.88 165.425 379.125 165.164C379.33 164.951 379.449 164.516 379.583 164.247C379.908 163.607 380.232 162.959 380.556 162.318C380.659 162.12 380.975 162.255 380.881 162.46C380.493 163.227 380.113 163.994 379.726 164.761C379.623 164.959 379.536 165.275 379.378 165.433C379.046 165.765 378.263 165.837 377.836 165.924C377.883 165.844 377.93 165.765 377.978 165.686C378.223 166.192 378.429 166.722 378.674 167.228C378.777 167.434 378.445 167.56 378.35 167.355H378.342Z" fill="#2AD883"/>
<path d="M382.004 165.149C381.893 165.433 382.036 165.75 382.312 165.86C382.597 165.971 382.914 165.829 383.024 165.552C383.135 165.275 382.993 164.951 382.716 164.84C382.431 164.73 382.115 164.872 382.004 165.149Z" fill="#2AD883"/>
<path d="M376.895 163.559C376.784 163.844 376.926 164.16 377.203 164.271C377.48 164.382 377.804 164.239 377.915 163.963C378.026 163.678 377.883 163.362 377.606 163.251C377.322 163.14 377.005 163.283 376.895 163.559Z" fill="#2AD883"/>
<path d="M388.529 167.703C388.584 167.584 392.032 165.837 392.981 168.549C393.931 171.253 390.814 174.7 387.145 171.735L388.529 167.71V167.703Z" fill="#EBB3AB"/>
<path d="M390.285 173.142C390.285 173.822 389.731 174.376 389.051 174.376C388.371 174.376 387.817 173.822 387.817 173.142C387.817 172.462 388.371 171.909 389.051 171.909C389.731 171.909 390.285 172.462 390.285 173.142Z" fill="#F1F1F1"/>
<path d="M392.356 169.703C391.162 169.837 390.087 170.335 389.193 171.142C389.027 171.292 388.821 171.008 388.987 170.857C389.92 170.011 391.067 169.497 392.317 169.347C392.538 169.323 392.586 169.671 392.356 169.695V169.703Z" fill="#2AD883"/>
<path d="M387.888 154.277C387.888 154.277 380.256 159.306 375.621 160.824C375.621 160.824 374.118 156.143 377.693 152.617C383.277 147.098 390.055 151.462 391.795 152.877L387.888 154.277Z" fill="#2AD883"/>
<path d="M376.681 153.826C376.681 153.826 378.651 150.735 381.174 149.201C381.174 149.201 393.575 148.956 398.415 159.843C398.945 161.353 399.103 164.556 397.609 166.042C397.609 166.042 388.418 151.597 376.681 153.834V153.826Z" fill="#464C54"/>
<path d="M363.457 184.773C363.457 184.773 341.683 189.24 335.839 185.469C329.994 181.697 331.789 172.494 328.238 172.81C324.687 173.127 318.526 185.635 317.624 195.4C316.722 205.164 318.478 201.654 326.791 205.37C335.641 209.331 354.291 214.597 358.451 210.256C362.611 205.916 363.449 184.765 363.449 184.765L363.457 184.773Z" fill="#2AD883"/>
<path d="M336.179 186.354C337.705 189.572 338.599 193.02 338.836 196.57C338.852 196.855 339.303 196.855 339.279 196.57C339.034 192.941 338.116 189.422 336.558 186.133C336.44 185.872 336.052 186.101 336.171 186.354H336.179Z" fill="#747D86"/>
<path d="M355.35 211.253C356.109 206.263 357.019 201.298 358.095 196.356C358.158 196.08 357.723 195.961 357.667 196.238C356.592 201.172 355.682 206.137 354.923 211.134C354.883 211.411 355.311 211.537 355.35 211.253Z" fill="#747D86"/>
<path d="M322.891 195.202C324.908 196.009 331.085 180.527 329.06 179.721C325.754 169.932 322.077 152.118 322.077 152.118C322.171 150.893 316.643 150.838 315.971 151.96C315.971 151.96 316.485 185.991 322.171 194.301C322.385 194.609 322.622 194.909 322.891 195.202Z" fill="#EBB3AB"/>
<path d="M293.643 159.266C291.002 159.685 288.866 146.291 291.508 145.872C291.508 145.872 306.978 145.319 319.498 144.172C331.931 143.034 344.657 137.333 344.839 137.254C346.057 139.357 346.864 141.642 347.235 143.998C347.615 146.354 347.56 148.782 347.054 151.154C346.919 151.138 344.135 150.853 340.022 150.774C334.85 150.679 327.573 150.917 320.819 152.458C308.56 155.257 293.643 159.274 293.643 159.274V159.266Z" fill="#B49346"/>
<path d="M347.061 151.154C346.943 151.114 344.981 150.395 344.111 144.908C343.225 139.333 344.799 137.317 344.847 137.254C346.065 139.357 346.872 141.642 347.243 143.998C347.623 146.354 347.568 148.782 347.061 151.154Z" fill="#97722F"/>
<path d="M344.823 140.029C344.823 140.029 344.871 139.982 344.894 139.958C344.966 139.903 345.124 139.839 345.329 139.982C346.112 140.535 346.587 142.733 346.753 143.65C347.062 145.35 347.141 147.003 346.943 147.667C346.919 147.754 346.832 147.801 346.745 147.778C346.658 147.754 346.611 147.667 346.634 147.58C347.03 146.252 346.231 141.01 345.148 140.25C345.108 140.227 345.092 140.219 345.084 140.219C345.084 140.219 344.958 140.282 344.894 140.907C344.705 142.986 345.535 147.841 346.002 148.149C346.002 148.149 346.01 148.141 346.018 148.133C346.286 147.801 346.207 145.002 345.195 141.8C345.171 141.713 345.219 141.626 345.298 141.603C345.385 141.579 345.472 141.626 345.496 141.705C346.358 144.441 346.729 147.73 346.247 148.347C346.176 148.434 346.081 148.481 345.986 148.473C345.812 148.466 345.598 148.323 345.322 147.351C344.839 145.659 344.175 140.836 344.823 140.029Z" fill="#745423"/>
<path d="M322.361 143.832C322.361 143.832 320.076 143.144 318.185 143.832C316.129 144.583 317.418 152.798 319.459 153.067C321.46 153.336 323.587 151.889 323.587 151.889C322.757 152.063 322.013 152.15 321.412 152.316C321.412 152.316 320.321 151.47 319.822 148.347C319.324 145.224 320.297 144.093 320.297 144.093L322.353 143.832H322.361Z" fill="#D0BC70"/>
<path d="M319.411 151.944C319.411 151.944 320.068 154.198 321.721 154.229C323.366 154.261 324.457 153.455 326.007 153.083C327.558 152.711 326.221 151.035 324.615 151.193C323.01 151.359 319.419 151.937 319.419 151.937L319.411 151.944Z" fill="#EBB3AB"/>
<path d="M312.222 144.757C311.083 146.979 312.791 152.917 313.725 153.455C315.125 154.261 315.995 153.312 315.995 153.312C315.995 153.312 316.248 154.301 317.513 154.111C318.779 153.921 318.826 152.846 318.826 152.846C318.826 152.846 319.767 153.723 320.36 153.565C321.373 153.304 321.847 152.008 321.847 152.008C321.847 152.008 322.757 152.838 323.295 152.3C324.196 151.391 322.646 148.948 323.073 147.145C323.5 145.342 323.548 144.496 323.342 143.666C323.137 142.836 321.104 143.018 320.74 143.682C320.653 143.84 319.854 142.978 319.055 143.073C318.011 143.2 317.537 143.975 317.537 143.975C317.537 143.975 316.335 143.081 315.433 143.318C314.531 143.555 314.207 144.299 314.207 144.299C314.207 144.299 313.353 143.358 312.214 144.749L312.222 144.757Z" fill="#EBB3AB"/>
<path d="M322.519 154.008C320.4 154.435 318.28 154.34 316.2 153.747C315.923 153.668 315.805 154.095 316.081 154.174C318.233 154.791 320.439 154.878 322.638 154.435C322.915 154.38 322.796 153.953 322.519 154.008Z" fill="#5D341E"/>
<path d="M316.01 153.399C315.267 151.367 314.673 149.288 314.666 147.113C314.666 146.829 314.223 146.829 314.223 147.113C314.223 149.327 314.824 151.454 315.583 153.518C315.678 153.787 316.113 153.668 316.01 153.399Z" fill="#5D341E"/>
<path d="M318.85 152.783C317.932 150.687 317.489 148.094 317.655 145.817C317.679 145.532 317.228 145.532 317.212 145.817C317.046 148.173 317.521 150.845 318.47 153.012C318.581 153.273 318.968 153.044 318.857 152.79L318.85 152.783Z" fill="#5D341E"/>
<path d="M322.021 152.103C321.349 150.237 320.961 148.189 320.906 146.212C320.906 145.927 320.455 145.927 320.463 146.212C320.518 148.228 320.906 150.324 321.594 152.221C321.689 152.49 322.124 152.371 322.021 152.103Z" fill="#5D341E"/>
<path d="M315.678 153.652C316.841 154.435 318.193 154.316 318.968 153.091C318.866 153.115 318.763 153.146 318.668 153.17C319.917 154.087 321.341 153.755 322.053 152.427C322.187 152.174 321.808 151.952 321.665 152.205C321.056 153.336 319.918 153.542 318.889 152.79C318.787 152.719 318.644 152.775 318.589 152.87C317.932 153.913 316.841 153.897 315.908 153.265C315.67 153.107 315.449 153.486 315.686 153.652H315.678Z" fill="#5D341E"/>
<path d="M257.507 156.032C257.507 157.408 256.391 158.523 255.015 158.523C253.639 158.523 252.524 157.408 252.524 156.032C252.524 154.656 253.639 153.542 255.015 153.542C256.391 153.542 257.507 154.656 257.507 156.032Z" fill="#B49346"/>
<path d="M561.114 269.881C561.114 270.845 560.331 271.636 559.358 271.636C558.386 271.636 557.603 270.853 557.603 269.881C557.603 268.908 558.386 268.125 559.358 268.125C560.331 268.125 561.114 268.908 561.114 269.881Z" fill="#745423"/>
<path d="M449.825 325.473C450.795 325.473 451.581 324.687 451.581 323.718C451.581 322.748 450.795 321.962 449.825 321.962C448.855 321.962 448.069 322.748 448.069 323.718C448.069 324.687 448.855 325.473 449.825 325.473Z" fill="#745423"/>
<path d="M361.828 149.185C361.828 150.15 361.045 150.94 360.072 150.94C359.099 150.94 358.316 150.158 358.316 149.185C358.316 148.212 359.099 147.43 360.072 147.43C361.045 147.43 361.828 148.212 361.828 149.185Z" fill="#745423"/>
<path d="M275.856 164.176C275.856 165.141 275.073 165.931 274.1 165.931C273.127 165.931 272.344 165.149 272.344 164.176C272.344 163.204 273.127 162.421 274.1 162.421C275.073 162.421 275.856 163.204 275.856 164.176Z" fill="#745423"/>
<path d="M550.057 279.416C550.057 280.792 548.942 281.907 547.566 281.907C546.189 281.907 545.074 280.792 545.074 279.416C545.074 278.04 546.189 276.926 547.566 276.926C548.942 276.926 550.057 278.04 550.057 279.416Z" fill="#B49346"/>
<path d="M150.315 276.91C150.315 278.286 149.2 279.4 147.823 279.4C146.447 279.4 145.332 278.286 145.332 276.91C145.332 275.534 146.447 274.419 147.823 274.419C149.2 274.419 150.315 275.534 150.315 276.91Z" fill="#B49346"/>
<path d="M158.113 186.133C159.288 186.133 160.24 185.181 160.24 184.006C160.24 182.831 159.288 181.879 158.113 181.879C156.938 181.879 155.985 182.831 155.985 184.006C155.985 185.181 156.938 186.133 158.113 186.133Z" fill="#97722F"/>
<path d="M415.8 135.127C415.8 136.297 414.851 137.254 413.672 137.254C412.494 137.254 411.545 136.305 411.545 135.127C411.545 133.949 412.494 133 413.672 133C414.851 133 415.8 133.949 415.8 135.127Z" fill="#97722F"/>
<path d="M442.2 234.664C442.2 235.835 441.251 236.791 440.073 236.791C438.894 236.791 437.945 235.842 437.945 234.664C437.945 233.486 438.894 232.537 440.073 232.537C441.251 232.537 442.2 233.486 442.2 234.664Z" fill="#97722F"/>
<path d="M542.994 183.437C542.994 184.607 542.045 185.564 540.867 185.564C539.688 185.564 538.739 184.615 538.739 183.437C538.739 182.259 539.688 181.31 540.867 181.31C542.045 181.31 542.994 182.259 542.994 183.437Z" fill="#97722F"/>
<path d="M319.245 260.409C319.245 261.579 318.296 262.535 317.118 262.535C315.939 262.535 314.99 261.587 314.99 260.409C314.99 259.23 315.939 258.282 317.118 258.282C318.296 258.282 319.245 259.23 319.245 260.409Z" fill="#97722F"/>
<path d="M140.998 260.409C140.998 261.239 140.325 261.911 139.495 261.911C138.664 261.911 137.992 261.239 137.992 260.409C137.992 259.578 138.664 258.906 139.495 258.906C140.325 258.906 140.998 259.578 140.998 260.409Z" fill="#97722F"/>
<path d="M496.053 438.274L491.24 438.22C491.253 440.458 483.281 442.465 479.851 444.717C478.834 445.381 476.949 446.683 478.17 447.863C478.888 448.568 480.447 448.799 481.478 448.772C485.721 448.663 490.046 448.744 493.951 447.348C495.524 446.791 497.192 445.964 497.612 444.581C498.168 442.75 496.012 441.421 496.053 438.274Z" fill="#171F39"/>
<path d="M549.526 439.997L544.808 439.943C544.821 442.18 537.039 444.188 533.677 446.439C532.687 447.103 530.843 448.405 532.036 449.585C532.741 450.291 534.26 450.521 535.263 450.494C539.412 450.386 543.628 450.467 547.452 449.07C548.984 448.514 550.624 447.687 551.031 446.303C551.573 444.472 549.472 443.143 549.513 439.997H549.526Z" fill="#171F39"/>
<path d="M491.701 292.969C485.491 324.583 485.491 339.081 484.732 362.367C483.824 390.658 488.067 416.887 489.735 440.065C489.735 440.065 493.314 441.801 496.5 440.146C499.537 425.974 508.526 399.554 505.422 380.757C504.866 377.38 504.405 373.99 504.364 370.572C504.269 362.557 527.06 324.23 522.505 287.612" fill="white"/>
<path d="M512.566 282.214C510.465 302.91 520.322 352.575 524.186 371.752C529.229 396.774 542.205 437.827 543.072 441.787C544.74 442.899 549.729 441.706 549.729 441.706C550.014 422.664 554.908 397.317 548.17 379.198C546.963 375.943 545.635 372.688 545.228 369.284C544.848 366.056 556.156 329.614 554.19 314.153C553.146 305.989 550.231 296.116 543.086 287.192" fill="white"/>
<path d="M513.746 314.804C514.248 320.311 514.885 325.803 515.699 331.269C515.78 331.825 515.861 332.381 515.943 332.937C515.983 333.195 516.01 333.669 516.295 333.791L516.105 333.466C516.173 333.968 516.932 333.968 516.878 333.479C516.851 333.276 516.756 333.941 516.837 333.642C516.837 333.588 516.892 333.547 516.892 333.493C516.905 333.344 516.919 333.208 516.905 333.045C516.892 332.625 516.824 332.205 516.77 331.784C516.593 330.306 516.444 328.828 516.241 327.363C515.766 323.945 515.292 320.514 514.695 317.11C514.56 316.323 514.424 315.523 514.275 314.736C514.221 314.438 513.719 314.506 513.746 314.804Z" fill="#4855B7"/>
<path d="M538.218 207.175C534.707 203.499 528.294 205.045 523.264 204.327C519.359 203.771 515.441 203.215 511.536 202.658C510.6 202.523 509.651 202.387 508.729 202.536C507.374 202.753 506.194 203.526 505.055 204.272C501.788 206.429 498.52 208.599 495.266 210.755C491.782 213.061 492.094 218.092 491.633 221.89C491.077 226.352 490.67 230.841 490.345 235.316C489.707 244.145 489.409 253.001 489.341 261.857C489.274 270.334 489.829 278.715 490.412 287.164C490.453 287.734 490.494 288.317 490.372 288.887C490.155 289.972 489.382 290.88 489.07 291.952C488.419 294.122 489.775 296.387 491.361 298.014C498.086 304.917 510.017 303.561 518.776 303.453C527.304 303.344 535.819 301.771 543.831 298.774C546.787 297.662 552.766 296.102 554.786 293.471C556.847 290.786 555.478 284.805 555.397 281.536C554.895 261.437 554.38 241.338 553.878 221.239C553.783 217.333 553.512 213.006 550.8 210.294" fill="#2AD883"/>
<path d="M538.422 206.971C535.683 204.177 531.48 204.259 527.847 204.218C522.735 204.164 517.678 203.147 512.634 202.428C511.455 202.252 510.221 201.994 509.028 202.102C507.835 202.211 506.804 202.699 505.828 203.296C503.578 204.652 501.422 206.185 499.225 207.622C498.1 208.355 496.988 209.101 495.863 209.833C494.995 210.402 494.155 210.959 493.504 211.786C492.419 213.183 491.945 214.932 491.673 216.655C491.402 218.499 491.321 220.371 491.104 222.229C490.765 225.023 490.467 227.816 490.223 230.61C489.735 236.089 489.396 241.568 489.179 247.061C488.718 258.223 488.745 269.344 489.45 280.492C489.531 281.821 489.626 283.15 489.708 284.479C489.789 285.808 490.128 287.395 489.87 288.724C489.667 289.823 488.881 290.718 488.569 291.789C488.298 292.725 488.352 293.742 488.636 294.664C489.802 298.394 493.68 300.971 497.151 302.286C500.839 303.683 504.866 304.049 508.77 304.117C512.675 304.185 516.702 304.063 520.647 303.914C525.854 303.724 531.046 302.978 536.09 301.717C540.361 300.645 544.55 299.153 548.672 297.621C551.655 296.509 555.302 295.098 556.129 291.681C556.576 289.836 556.454 287.897 556.292 286.025C556.129 284.072 555.926 282.133 555.871 280.166C555.6 268.991 555.315 257.802 555.031 246.627C554.895 240.985 554.732 235.33 554.583 229.688C554.502 226.867 554.421 224.046 554.326 221.225C554.258 219.123 554.163 216.98 553.634 214.946C553.16 213.088 552.305 211.433 550.977 210.063C550.692 209.779 550.258 210.213 550.529 210.511C553.594 213.685 553.295 218.865 553.363 222.934C553.444 228.237 553.58 233.553 553.702 238.856C553.973 249.584 554.244 260.311 554.515 271.039C554.638 275.65 554.61 280.275 555.058 284.859C555.248 286.717 555.451 288.629 555.207 290.501C554.99 292.169 554.299 293.43 552.916 294.38C549.987 296.4 546.34 297.255 543.032 298.462C538.368 300.157 533.541 301.391 528.647 302.124C524.172 302.788 519.685 302.869 515.156 303.005C511.319 303.114 507.469 303.222 503.645 302.761C499.822 302.3 496.283 301.323 493.3 299.086C491.606 297.811 489.884 296.034 489.45 293.905C489.206 292.711 489.613 291.735 490.141 290.691C490.63 289.728 490.928 288.833 490.901 287.748C490.819 285.117 490.535 282.472 490.372 279.841C490.209 277.21 490.06 274.525 489.952 271.853C489.748 266.618 489.748 261.383 489.843 256.134C490.047 245.542 490.548 234.937 491.728 224.399C491.958 222.391 492.148 220.371 492.338 218.364C492.514 216.56 492.758 214.634 493.68 213.034C494.805 211.081 497.097 210.023 498.9 208.829C501.083 207.378 503.252 205.913 505.435 204.476C506.452 203.811 507.509 203.147 508.73 202.943C510.153 202.713 511.645 203.079 513.041 203.269C515.617 203.621 518.18 203.988 520.756 204.34C522.857 204.639 524.918 204.869 527.047 204.883C529.053 204.883 531.087 204.828 533.066 205.127C534.897 205.398 536.632 206.035 537.947 207.365C538.219 207.636 538.625 207.215 538.354 206.958L538.422 206.971Z" fill="#272425"/>
<path d="M549.323 332.367C549.933 331.174 549.512 329.153 551.017 328.597C551.804 328.312 553.227 328.312 554.081 328.19C556.495 327.838 559.356 327.064 559.45 330.523C559.464 331.092 559.844 331.648 560.413 331.784C560.671 331.852 560.86 331.825 561.105 331.784C561.674 331.676 562.054 331.052 562.067 330.523C562.135 326.074 559.234 324.854 555.247 325.491C553.187 325.817 550.407 325.817 548.767 327.268C547.194 328.651 547.262 330.699 547.411 332.611C547.451 333.059 547.75 333.317 548.184 333.208C548.753 333.086 549.078 332.774 549.295 332.354L549.323 332.367Z" fill="#2936B2"/>
<path d="M575.992 330.713C575.341 329.736 574.297 329.167 572.534 329.329C560.779 330.36 549.052 331.838 537.419 333.927C535.941 334.198 534.436 334.469 533.08 335.175C530.03 336.734 529.514 339.84 530.002 343.163C530.87 349.103 531.006 355.125 532.009 361.051C532.239 362.408 532.497 363.777 533.175 364.944C534.043 366.436 535.507 367.358 537.08 367.195C549.431 365.947 561.837 363.791 573.971 360.807C575.192 360.509 576.398 359.885 577.185 358.827C578.093 357.593 578.188 355.898 578.215 354.311C578.324 347.733 577.89 342.322 577.212 335.785C577.008 333.832 576.832 331.947 576.019 330.726L575.992 330.713Z" fill="#2AD883"/>
<path d="M537.324 341.698C541.201 344.017 545.201 346.119 549.35 347.91C550.245 348.289 551.139 348.669 552.034 349.022C553.01 349.415 554.027 349.89 555.085 350.039C556.766 350.283 558.095 349.266 559.369 348.303C564.06 344.777 568.101 340.369 571.992 336.002C572.995 334.876 573.998 333.588 574.92 332.489C575.097 332.272 574.798 331.96 574.608 332.177C573.944 332.978 573.036 333.873 572.304 334.714C570.555 336.707 568.778 338.66 566.948 340.559C564.928 342.647 562.854 344.695 560.644 346.58C559.573 347.489 558.434 348.466 557.186 349.13C555.153 350.215 552.644 348.764 550.706 347.977C546.136 346.146 541.676 344.031 537.378 341.63C537.337 341.603 537.296 341.671 537.337 341.698H537.324Z" fill="#2733A8"/>
<path d="M550.841 313.475C550.855 315.184 548.903 317.815 548.116 319.212C546.313 322.453 547.37 324.976 548.279 327.797C548.903 326.97 549.608 326.536 550.665 326.264C551.777 326.915 552.048 328.149 550.611 328.814C549.838 329.289 549.553 330.387 549.702 330.862C549.879 331.391 551.343 331.676 551.899 330.55C552.224 331.323 553.824 331.106 554.109 330.116C554.407 330.862 555.695 330.401 555.993 329.506C556.576 329.98 557.01 329.885 557.444 329.289C557.892 328.692 557.946 328.163 557.946 327.417C557.946 324.433 557.024 321.558 556.766 318.602C556.563 316.174 556.183 313.502 557.363 311.278" fill="#EBB3AB"/>
<path d="M437.238 276.315C436.478 276.64 433.062 279.136 432.302 279.393C431.638 279.61 429.591 279.298 428.045 279.38C427.476 279.407 425.496 280.126 424.751 280.465C424.479 280.587 423.585 280.98 423.327 281.129C423.056 281.292 422.812 281.468 422.554 281.658C421.998 282.065 421.442 282.486 420.886 282.892C420.737 283.001 420.588 283.123 420.548 283.299C420.493 283.489 420.588 283.693 420.751 283.815C420.9 283.937 421.103 283.991 421.293 284.005C422.215 284.1 424.412 283.055 424.398 283.177C424.398 283.272 422.486 284.859 421.727 285.673C421.185 286.242 419.192 289.823 419.517 290.677C419.856 291.518 421.009 291.64 421.754 291.437C422.947 291.111 425.279 288.792 425.279 288.792C425.279 288.792 426.608 288.399 428.005 288.222C428.75 288.127 429.523 288.127 430.201 287.802C431.652 287.124 432.194 285.347 433.319 284.208C434.173 283.354 435.299 282.906 436.383 282.431C437.563 281.916 439.502 281.143 439.502 281.143" fill="#EBB3AB"/>
<path d="M430.35 283.001C429.442 283.313 428.506 283.503 427.544 283.557C427.083 283.584 426.622 283.584 426.161 283.557C425.7 283.53 425.198 283.394 424.737 283.449C424.602 283.462 424.507 283.666 424.656 283.747C425.049 283.964 425.605 283.977 426.052 284.005C426.554 284.032 427.042 284.018 427.53 283.977C428.52 283.882 429.482 283.652 430.404 283.286C430.567 283.218 430.499 282.96 430.337 283.015L430.35 283.001Z" fill="#A54B0E"/>
<path d="M535.209 224.467C534.978 240.931 544.618 268.557 544.943 270.32C545.215 271.771 547.397 302.273 549.106 316.011C549.106 316.011 550.611 317.3 553.065 317.3C555.519 317.3 557.417 316.011 557.417 316.011C560.02 304.633 561.471 287.476 562.135 275.813C563.41 253.476 561.525 249.231 560.21 226.921C559.925 222.147 559.776 217.157 556.658 213.237C550.462 205.479 536.171 204.571 527.318 202.048" fill="#2AD883"/>
<path d="M515.265 201.384C510.885 201.777 493.965 203.784 490.318 205.303C482.793 208.422 468.042 238.151 460.829 248.255C456.544 254.249 451.013 259.199 445.522 264.109C438.282 270.578 438.227 272.395 430.987 278.864L434.702 285.266C445.061 281.699 455.094 277.183 464.625 271.785C467.879 269.941 471.079 268.001 473.98 265.655C478.942 261.654 482.915 256.582 486.833 251.564C492.094 244.837 497.354 238.11 502.615 231.397" fill="#2AD883"/>
<path d="M527.372 186.452C528.402 192.053 529.229 197.681 529.84 203.337C530.016 204.991 525.84 206.375 524.687 206.809C520.268 208.477 514.478 208.233 511.631 203.866C510.492 202.116 511.563 200.122 512.024 198.197C512.675 195.471 513.312 192.731 513.976 189.991" fill="#EBB3AB"/>
<path d="M507.848 183.007C508.214 183.102 507.564 183.034 507.496 183.021C507.035 182.966 506.777 182.871 506.384 182.614C505.449 182.003 504.567 181.04 504.364 179.915C504.038 178.138 504.188 175.575 504.662 173.825C504.757 173.486 504.879 173.147 505.069 172.849C505.435 172.32 506.045 172.008 506.669 171.94C507.292 171.872 507.943 172.076 508.472 172.428" fill="#171F39"/>
<path d="M506.221 186.614C505.95 183.278 505.977 179.86 506.56 176.66C507.306 172.659 509.461 169.458 513.434 168.197C517.678 166.854 522.681 167.695 526.355 170.191C532.28 174.219 532.971 182.926 529.243 189.056C526.219 194.033 522.26 199.77 515.834 200.109C513.542 200.231 511.143 199.499 509.529 197.871C507.672 195.999 507.035 193.273 506.668 190.67C506.479 189.354 506.33 187.998 506.208 186.614H506.221Z" fill="#EBB3AB"/>
<path d="M529.704 164.847C526.098 162.542 521.407 161.185 517.136 161.158C514.465 161.131 511.604 161.552 509.259 160.277C508.554 159.897 507.93 159.368 507.157 159.151C505.639 158.717 503.971 159.653 503.117 160.995C500.256 165.498 502.33 172.442 507.238 174.476C509.991 175.616 513.34 175.724 516.282 175.819C518.031 175.873 519.753 176.361 520.336 178.247C520.742 179.562 520.444 181.244 521.529 182.098C522.261 182.668 522.912 182.79 523.223 183.821C523.4 184.417 523.413 185.041 523.427 185.652C523.427 186.14 523.183 187.835 523.467 188.201C523.861 188.703 524.769 188.323 525.447 188.445C525.989 188.54 526.532 188.798 526.83 189.273C527.196 189.856 527.155 190.927 527.25 191.592C527.399 192.677 527.535 193.762 527.684 194.847C527.711 195.104 527.765 195.389 527.996 195.525C528.226 195.66 528.525 195.565 528.769 195.443C529.772 194.942 530.586 194.114 531.372 193.314C532.863 191.795 534.368 190.249 535.494 188.432C536.958 186.031 537.202 183.536 537.121 180.796C537.053 178.057 536.863 175.29 536.036 172.673C534.938 169.228 532.714 166.787 529.731 164.874L529.704 164.847Z" fill="#171F39"/>
<path d="M503.564 160.331C501.91 161.334 501.205 163.586 500.825 165.362C500.418 167.302 500.242 169.404 501.354 171.154C502.289 172.632 503.835 173.676 505.476 174.191C506.533 174.531 507.645 174.653 508.743 174.707C509.841 174.761 510.872 174.815 511.821 174.327C512.024 174.219 511.943 173.947 511.767 173.866C510.912 173.54 510.018 173.635 509.123 173.608C508.228 173.581 507.265 173.5 506.37 173.283C504.798 172.903 503.279 172.144 502.289 170.828C501.137 169.296 501.245 167.343 501.571 165.539C501.896 163.735 502.33 161.782 503.767 160.548C503.903 160.426 503.727 160.209 503.577 160.304L503.564 160.331Z" fill="#171F39"/>
<path d="M530.843 166.895C531.155 166.244 531.385 165.58 531.67 164.915C531.819 164.562 531.982 164.21 532.118 163.857C532.199 163.654 532.253 163.464 532.212 163.233C532.185 163.084 532.145 162.908 531.982 162.854C531.819 162.799 531.657 162.921 531.535 163.003C531.358 163.125 531.25 163.342 531.168 163.518C531.006 163.871 530.87 164.223 530.748 164.589C530.504 165.281 530.301 165.973 530.206 166.719C530.165 167.058 530.694 167.18 530.843 166.895Z" fill="#171F39"/>
<path d="M530.748 167.41C531.413 166.949 532.172 166.597 532.945 166.393C533.351 166.285 533.704 166.244 534.07 166.203C534.3 166.176 534.517 166.176 534.748 166.122C534.951 166.068 535.209 166.068 535.371 165.932C535.575 165.783 535.602 165.552 535.439 165.363C535.29 165.186 535.019 165.118 534.802 165.051C534.558 164.969 534.314 164.956 534.056 164.969C533.568 164.983 533.08 165.091 532.619 165.241C531.697 165.539 530.897 166.041 530.219 166.732C529.908 167.058 530.328 167.668 530.721 167.383L530.748 167.41Z" fill="#171F39"/>
<path d="M525.881 191.443C526.057 195.308 530.545 190.968 531.06 189.49C531.643 187.862 531.48 186.031 530.829 184.431C530.612 183.902 530.314 183.359 529.826 183.048C527.616 181.678 525.162 185.394 524.931 187.17C524.755 188.554 523.928 189.408 524.037 190.805C524.037 190.914 524.091 191.063 524.199 191.063C524.308 191.063 525.881 191.32 525.881 191.443Z" fill="#EBB3AB"/>
<path d="M529.216 198.169C525.691 201.112 519.576 205.466 515.17 206.741C517.556 207.839 519.332 211.732 519.441 214.01C523.684 211.515 528.159 206.998 530.735 202.794" fill="white"/>
<path d="M511.753 199.187C512.051 201.614 513.556 204.937 515.183 206.754C512.065 206.836 510.37 211.189 510.723 211.664C510.723 211.664 509.163 206.239 510.153 201.289" fill="white"/>
<path d="M536.944 238.232C538.653 245.827 540.347 253.408 542.029 261.003C542.856 264.733 543.805 268.449 544.415 272.205C545.025 275.962 544.889 280.099 545.039 284.072C545.188 288.046 545.5 292.454 546.503 296.455C546.557 296.672 546.937 296.644 546.91 296.4C546.503 292.603 545.933 288.86 545.771 285.049C545.608 281.238 545.771 277.278 545.242 273.412C544.713 269.547 543.764 265.994 542.91 262.319C542.056 258.643 541.147 254.805 540.253 251.048C539.236 246.749 538.246 242.436 537.256 238.137C537.216 237.934 536.904 238.029 536.958 238.219L536.944 238.232Z" fill="#CE8900"/>
<path d="M514.207 209.358C513.326 222.473 512.377 235.588 511.591 248.702C510.831 261.369 510.221 274.063 510.167 286.758C510.167 289.606 510.221 292.481 510.587 295.302C510.886 297.635 511.319 300.252 512.865 302.124C512.987 302.273 513.245 302.069 513.136 301.92C511.821 300.089 511.428 297.58 511.143 295.383C510.804 292.834 510.723 290.257 510.709 287.693C510.682 281.943 510.845 276.179 511.048 270.429C511.509 257.084 512.269 243.752 513.068 230.42C513.489 223.395 513.923 216.37 514.343 209.345C514.343 209.263 514.221 209.263 514.207 209.345V209.358Z" fill="#CE8900"/>
<path d="M516.024 214.281C517.637 214.281 517.637 211.772 516.024 211.772C514.411 211.772 514.411 214.281 516.024 214.281Z" fill="#CE8900"/>
<path d="M515.265 230.271C516.878 230.271 516.878 227.762 515.265 227.762C513.651 227.762 513.651 230.271 515.265 230.271Z" fill="#CE8900"/>
<path d="M514.505 246.261C516.119 246.261 516.119 243.752 514.505 243.752C512.892 243.752 512.892 246.261 514.505 246.261Z" fill="#CE8900"/>
<path d="M513.746 262.251C515.36 262.251 515.36 259.742 513.746 259.742C512.133 259.742 512.133 262.251 513.746 262.251Z" fill="#CE8900"/>
<path d="M512.987 278.241C514.6 278.241 514.6 275.732 512.987 275.732C511.374 275.732 511.374 278.241 512.987 278.241Z" fill="#CE8900"/>
<path d="M512.987 294.217C514.6 294.217 514.6 291.708 512.987 291.708C511.374 291.708 511.374 294.217 512.987 294.217Z" fill="#CE8900"/>
</g>
<defs>
<filter id="filter0_f_11_3271" x="0.810547" y="0.20163" width="751.041" height="750.533" filterUnits="userSpaceOnUse" color-interpolation-filters="sRGB">
<feFlood flood-opacity="0" result="BackgroundImageFix"/>
<feBlend mode="normal" in="SourceGraphic" in2="BackgroundImageFix" result="shape"/>
<feGaussianBlur stdDeviation="136" result="effect1_foregroundBlur_11_3271"/>
</filter>
<radialGradient id="paint0_radial_11_3271" cx="0" cy="0" r="1" gradientUnits="userSpaceOnUse" gradientTransform="translate(17.9254 -56.8789) rotate(63.6737) scale(365.536 903.495)">
<stop stop-color="#2AD883"/>
<stop offset="1" stop-color="#2AD883"/>
</radialGradient>
<clipPath id="clip0_11_3271">
<rect width="456" height="326.602" fill="white" transform="translate(138 133)"/>
</clipPath>
</defs>
</svg>
