<svg width="157" height="48" viewBox="0 0 157 48" fill="none" xmlns="http://www.w3.org/2000/svg">
<g clip-path="url(#clip0_334_1768)">
<path d="M32.5096 15.9119C32.5096 24.0209 26.3244 29.0728 16.4844 29.0728H10.1961V38.4065H0V2.70459H16.4844C26.3244 2.70459 32.5096 7.75649 32.5096 15.9165V15.9119ZM22.2057 15.9119C22.2057 12.595 20.0924 10.6559 15.8659 10.6559H10.1961V21.1122H15.8659C20.0924 21.1122 22.2057 19.1731 22.2057 15.9073V15.9119Z" fill="white"/>
<path d="M54.4761 9.74194V18.4633C53.5999 18.3613 52.9814 18.3102 52.2598 18.3102C48.291 18.3102 45.5639 20.3004 45.5639 25.1435V37.8452H35.7754V10.2012H45.1V13.5181C47.1102 11.0177 50.3574 9.74194 54.4761 9.74194Z" fill="white"/>
<path d="M93.4993 39.8352C93.4993 43.1521 91.9015 44.8871 89.0151 44.8871C87.3142 44.8871 85.871 44.4278 84.7886 43.5093L83.5 46.2649C84.8401 47.4386 87.0565 47.9999 89.2166 47.9999C94.3662 47.9999 97.1495 44.7897 97.1495 39.8398V11.0176H93.49V39.8352H93.4993Z" fill="white"/>
<path d="M95.355 0C93.8603 0 92.6748 1.17367 92.6748 2.55146C92.6748 3.98028 93.8088 5.15396 95.355 5.15396C96.9013 5.15396 98.0353 3.98028 98.0353 2.50043C98.0353 1.12264 96.8498 0 95.355 0Z" fill="black"/>
<path d="M99.8438 24.4337C99.8438 16.4777 105.72 10.8135 113.653 10.8135C121.586 10.8135 127.41 16.4777 127.41 24.4337C127.41 32.3896 121.59 38.1049 113.653 38.1049C105.715 38.1049 99.8438 32.3896 99.8438 24.4337ZM123.699 24.4337C123.699 18.1571 119.421 13.9773 113.653 13.9773C107.884 13.9773 103.555 18.1617 103.555 24.4337C103.555 30.7056 107.884 34.89 113.653 34.89C119.421 34.89 123.699 30.7056 123.699 24.4337Z" fill="white"/>
<path d="M157 24.4337C157 32.5428 151.232 38.105 143.501 38.105C139.016 38.105 135.258 36.1658 133.042 32.5474V37.8498H129.537V0H133.192V16.116C135.46 12.646 139.171 10.8136 143.496 10.8136C151.223 10.8136 156.995 16.3201 156.995 24.4337H157ZM153.341 24.4337C153.341 18.1571 148.959 13.9774 143.243 13.9774C137.526 13.9774 133.145 18.1618 133.145 24.4337C133.145 30.7057 137.475 34.8901 143.243 34.8901C149.011 34.8901 153.341 30.7057 153.341 24.4337Z" fill="white"/>
<path d="M73.4812 6.10962C64.1988 6.10962 57.4092 12.7898 57.4092 22.1096C57.4092 31.4294 64.1988 38.1096 73.4812 38.1096C82.7637 38.1096 89.6001 31.4294 89.6001 22.1096C89.6001 12.7898 82.8105 6.10962 73.4812 6.10962ZM70.6042 9.30127C71.4054 6.8565 70.8713 7.2369 73.4672 7.2369C76.0631 7.2369 75.5242 6.8565 76.3301 9.30127C76.6769 10.3497 76.9065 10.8368 76.8924 11.1662C76.9159 11.6486 76.4895 11.7878 75.2524 12.6785C74.2122 13.4254 73.8514 13.8011 73.5 13.8011C73.1485 13.8011 72.7877 13.4254 71.7475 12.6785C71.0821 12.2007 70.6511 11.9409 70.398 11.7275C69.7608 11.2265 70.0278 11.0316 70.5995 9.30591L70.6042 9.30127ZM73.5047 37.6735C69.578 35.702 67.2586 33.7582 66.5464 31.8423L71.1243 14.381C72.7081 15.5408 73.5047 16.1253 73.5047 16.1253C73.5047 16.1253 74.2965 15.5408 75.8756 14.381L80.4536 31.8423C79.7414 33.7582 77.4266 35.702 73.5047 37.6735Z" fill="#58B77D"/>
<path d="M81.3958 40.6843C81.2272 40.1972 80.6836 39.9281 80.1869 40.0905C76.607 41.241 73.1302 41.1575 70.8389 40.8791C68.8615 40.6425 67.3715 40.2204 66.8232 40.0487C66.3312 39.8956 65.8064 40.1508 65.6284 40.6332C65.5393 40.8745 65.5534 41.1482 65.6658 41.3848C65.783 41.6167 65.9892 41.7976 66.2422 41.8719C66.9732 42.0992 68.5101 42.5213 70.5859 42.7718C71.6495 42.9017 72.7226 42.9667 73.7722 42.9667C74.3344 42.9667 74.9014 42.9481 75.4543 42.911C77.3099 42.7857 79.1045 42.4471 80.7867 41.9043C81.035 41.8255 81.2365 41.6538 81.349 41.4219C81.4661 41.1899 81.4849 40.9301 81.3958 40.6843Z" fill="#58B77D"/>
</g>
<defs>
<clipPath id="clip0_334_1768">
<rect width="157" height="48" fill="white"/>
</clipPath>
</defs>
</svg>
