<svg width="229" height="70" viewBox="0 0 229 70" fill="none" xmlns="http://www.w3.org/2000/svg">
<g clip-path="url(#clip0_444_1751)">
<path d="M47.4184 23.2047C47.4184 35.0304 38.3968 42.3977 24.0441 42.3977H14.8721V56.0094H0V3.94409H24.0441C38.3968 3.94409 47.4184 11.3114 47.4184 23.2115V23.2047ZM32.3892 23.2047C32.3892 18.3676 29.3068 15.5397 23.1419 15.5397H14.8721V30.7886H23.1419C29.3068 30.7886 32.3892 27.9607 32.3892 23.198V23.2047Z" fill="white"/>
<path d="M79.459 14.207V26.9257C78.1809 26.7769 77.2788 26.7024 76.2262 26.7024C70.4373 26.7024 66.4596 29.6047 66.4596 36.6676V55.1909H52.1821V14.8768H65.783V19.7139C68.715 16.0675 73.4514 14.207 79.459 14.207Z" fill="white"/>
<path d="M136.378 58.0931C136.378 62.9302 134.047 65.4604 129.837 65.4604C127.356 65.4604 125.251 64.7907 123.672 63.4512L121.792 67.4697C123.747 69.1813 126.98 69.9999 130.131 69.9999C137.642 69.9999 141.702 65.3184 141.702 58.0999V16.0674H136.364V58.0931H136.378Z" fill="white"/>
<path d="M139.084 0C136.904 0 135.175 1.71161 135.175 3.72089C135.175 5.80458 136.829 7.51619 139.084 7.51619C141.339 7.51619 142.993 5.80458 142.993 3.64647C142.993 1.63719 141.264 0 139.084 0Z" fill="#2AD883"/>
<path d="M145.632 35.6325C145.632 24.0301 154.202 15.7698 165.773 15.7698C177.344 15.7698 185.84 24.0301 185.84 35.6325C185.84 47.2349 177.351 55.5697 165.773 55.5697C154.195 55.5697 145.632 47.2349 145.632 35.6325ZM180.427 35.6325C180.427 26.4792 174.187 20.3837 165.773 20.3837C157.36 20.3837 151.045 26.4859 151.045 35.6325C151.045 44.7791 157.36 50.8814 165.773 50.8814C174.187 50.8814 180.427 44.7791 180.427 35.6325Z" fill="white"/>
<path d="M229 35.6325C229 47.4582 220.587 55.5697 209.309 55.5697C202.769 55.5697 197.287 52.7419 194.055 47.465V55.1976H188.942V0H194.273V23.5025C197.581 18.4421 202.994 15.7698 209.303 15.7698C220.573 15.7698 228.993 23.8001 228.993 35.6325H229ZM223.662 35.6325C223.662 26.4792 217.272 20.3837 208.934 20.3837C200.595 20.3837 194.205 26.4859 194.205 35.6325C194.205 44.7792 200.52 50.8814 208.934 50.8814C217.347 50.8814 223.662 44.7792 223.662 35.6325Z" fill="white"/>
<path d="M107.18 8.90991C93.6409 8.90991 83.7375 18.6519 83.7375 32.2432C83.7375 45.8346 93.6409 55.5766 107.18 55.5766C120.72 55.5766 130.691 45.8346 130.691 32.2432C130.691 18.6519 120.788 8.90991 107.18 8.90991ZM102.984 13.5644C104.152 9.99912 103.373 10.5539 107.16 10.5539C110.946 10.5539 110.16 9.99912 111.336 13.5644C111.841 15.0933 112.176 15.8037 112.156 16.284C112.19 16.9876 111.568 17.1906 109.764 18.4895C108.246 19.5787 107.72 20.1267 107.208 20.1267C106.695 20.1267 106.169 19.5787 104.651 18.4895C103.681 17.7927 103.052 17.4138 102.683 17.1026C101.754 16.372 102.143 16.0878 102.977 13.5712L102.984 13.5644ZM107.214 54.9406C101.487 52.0654 98.1039 49.2308 97.065 46.4367L103.742 20.9723C106.053 22.6637 107.214 23.5161 107.214 23.5161C107.214 23.5161 108.369 22.6637 110.673 20.9723L117.35 46.4367C116.311 49.2308 112.935 52.0654 107.214 54.9406Z" fill="#2AD883"/>
<path d="M118.724 59.3313C118.478 58.621 117.685 58.2286 116.96 58.4654C111.739 60.1432 106.667 60.0214 103.325 59.6155C100.441 59.2704 98.2678 58.6548 97.4681 58.4045C96.7505 58.1812 95.985 58.5533 95.7253 59.2569C95.5954 59.6087 95.6159 60.0079 95.78 60.3529C95.9508 60.6911 96.2516 60.955 96.6206 61.0632C97.6868 61.3947 99.9286 62.0104 102.956 62.3757C104.508 62.5651 106.073 62.6598 107.604 62.6598C108.424 62.6598 109.251 62.6328 110.057 62.5786C112.764 62.396 115.382 61.9021 117.835 61.1106C118.197 60.9956 118.491 60.7453 118.655 60.407C118.826 60.0687 118.854 59.6899 118.724 59.3313Z" fill="#2AD883"/>
</g>
<defs>
<clipPath id="clip0_444_1751">
<rect width="229" height="70" fill="white"/>
</clipPath>
</defs>
</svg>
