<svg width="74" height="74" viewBox="0 0 74 74" fill="none" xmlns="http://www.w3.org/2000/svg">
<rect width="74" height="74" rx="37" fill="black"/>
<path d="M37.4427 10C23.9033 10 14 19.742 14 33.3333C14 46.9247 23.9033 56.6667 37.4427 56.6667C50.982 56.6667 60.9537 46.9247 60.9537 33.3333C60.9537 19.742 51.0504 10 37.4427 10ZM33.2462 14.6545C34.4149 11.0892 33.6358 11.644 37.4222 11.644C41.2085 11.644 40.4225 11.0892 41.5981 14.6545C42.1039 16.1834 42.4388 16.8938 42.4183 17.3741C42.4524 18.0777 41.8305 18.2807 40.0261 19.5796C38.5089 20.6688 37.9826 21.2168 37.47 21.2168C36.9574 21.2168 36.4311 20.6688 34.9139 19.5796C33.9434 18.8828 33.3146 18.5039 32.9455 18.1927C32.016 17.4621 32.4056 17.1779 33.2394 14.6613L33.2462 14.6545ZM37.4768 56.0307C31.7494 53.1555 28.3663 50.3209 27.3275 47.5268L34.0049 22.0624C36.315 23.7537 37.4768 24.6062 37.4768 24.6062C37.4768 24.6062 38.6319 23.7537 40.9351 22.0624L47.6125 47.5268C46.5737 50.3209 43.1974 53.1555 37.4768 56.0307Z" fill="#2AD883"/>
<path d="M48.9862 60.4214C48.7401 59.7111 47.9473 59.3187 47.2228 59.5555C42.0012 61.2332 36.9299 61.1115 33.5878 60.7056C30.7036 60.3605 28.5302 59.7449 27.7306 59.4946C27.0129 59.2713 26.2475 59.6434 25.9877 60.347C25.8579 60.6988 25.8784 61.0979 26.0424 61.443C26.2133 61.7812 26.514 62.0451 26.8831 62.1533C27.9493 62.4848 30.191 63.1005 33.2188 63.4658C34.7702 63.6552 36.3353 63.7499 37.8663 63.7499C38.6864 63.7499 39.5134 63.7229 40.3199 63.6687C43.0264 63.4861 45.6441 62.9922 48.0977 62.2007C48.4599 62.0857 48.7538 61.8354 48.9178 61.4971C49.0887 61.1588 49.116 60.78 48.9862 60.4214Z" fill="#2AD883"/>
</svg>
